<svg width="20" height="20" viewBox="0 0 20 20" fill="none" xmlns="http://www.w3.org/2000/svg">
<g clip-path="url(#clip0_124_615)" filter="url(#filter0_f_124_615)">
<path d="M14.455 14.455C13.1729 15.4323 11.6118 15.9737 10 16C4.75 16 1.75 10 1.75 10C2.68292 8.26144 3.97685 6.74247 5.545 5.54502M8.425 4.18002C8.94125 4.05918 9.4698 3.99877 10 4.00002C15.25 4.00002 18.25 10 18.25 10C17.7947 10.8517 17.2518 11.6536 16.63 12.3925M11.59 11.59C11.384 11.8111 11.1356 11.9884 10.8596 12.1114C10.5836 12.2343 10.2857 12.3005 9.98357 12.3058C9.68146 12.3111 9.38137 12.2555 9.10121 12.1424C8.82104 12.0292 8.56654 11.8608 8.35289 11.6471C8.13923 11.4335 7.9708 11.179 7.85763 10.8988C7.74447 10.6186 7.6889 10.3186 7.69423 10.0165C7.69956 9.71434 7.76568 9.4164 7.88866 9.1404C8.01163 8.86441 8.18894 8.616 8.41 8.41002" stroke="black" stroke-width="2" stroke-linecap="round" stroke-linejoin="round"/>
<path d="M1.75 1.75L18.25 18.25" stroke="black" stroke-width="2" stroke-linecap="round" stroke-linejoin="round"/>
</g>
<defs>
<filter id="filter0_f_124_615" x="0" y="0" width="20" height="20" filterUnits="userSpaceOnUse" color-interpolation-filters="sRGB">
<feFlood flood-opacity="0" result="BackgroundImageFix"/>
<feBlend mode="normal" in="SourceGraphic" in2="BackgroundImageFix" result="shape"/>
<feGaussianBlur stdDeviation="0.5" result="effect1_foregroundBlur_124_615"/>
</filter>
<clipPath id="clip0_124_615">
<rect width="18" height="18" fill="white" transform="translate(1 1)"/>
</clipPath>
</defs>
</svg>
