<svg width="25" height="26" viewBox="0 0 25 26" fill="none" xmlns="http://www.w3.org/2000/svg">
<g clip-path="url(#clip0_152_1250)">
<path fill-rule="evenodd" clip-rule="evenodd" d="M19.2038 11.2959L20.9998 9.49994C21.545 8.95469 21.8176 8.68207 21.9634 8.38797C22.2407 7.82842 22.2407 7.17146 21.9634 6.61191C21.8176 6.31782 21.545 6.04519 20.9998 5.49994C20.4545 4.95469 20.1819 4.68207 19.8878 4.53633C19.3282 4.25905 18.6713 4.25905 18.1117 4.53633C17.8176 4.68207 17.545 4.95469 16.9998 5.49994L15.1811 7.3186C16.145 8.9692 17.5311 10.3448 19.2038 11.2959ZM13.7267 8.77305L6.85615 15.6436C6.43109 16.0686 6.21856 16.2812 6.07883 16.5422C5.93909 16.8033 5.88015 17.0981 5.76226 17.6875L5.14686 20.7645C5.08034 21.0971 5.04708 21.2634 5.14168 21.358C5.23629 21.4526 5.4026 21.4194 5.73521 21.3529L8.81219 20.7375C9.40164 20.6196 9.69637 20.5606 9.95746 20.4209C10.2186 20.2812 10.4311 20.0686 10.8562 19.6436L17.7456 12.7542C16.1239 11.7385 14.7522 10.3762 13.7267 8.77305Z" fill="black"/>
</g>
<defs>
<clipPath id="clip0_152_1250">
<rect y="0.5" width="25" height="25" rx="3" fill="white"/>
</clipPath>
</defs>
</svg>
