<svg width="25" height="25" viewBox="0 0 25 25" fill="none" xmlns="http://www.w3.org/2000/svg">
<g clip-path="url(#clip0_131_508)">
<path fill-rule="evenodd" clip-rule="evenodd" d="M19.2038 10.796L20.9998 9C21.545 8.45475 21.8176 8.18213 21.9634 7.88803C22.2407 7.32848 22.2407 6.67153 21.9634 6.11197C21.8176 5.81788 21.545 5.54525 20.9998 5C20.4545 4.45475 20.1819 4.18213 19.8878 4.03639C19.3282 3.75911 18.6713 3.75911 18.1117 4.03639C17.8176 4.18213 17.545 4.45475 16.9998 5L15.1811 6.81866C16.145 8.46926 17.5311 9.84482 19.2038 10.796ZM13.7267 8.27312L6.85615 15.1436C6.43109 15.5687 6.21856 15.7812 6.07883 16.0423C5.93909 16.3034 5.88015 16.5981 5.76226 17.1876L5.14686 20.2646C5.08034 20.5972 5.04708 20.7635 5.14168 20.8581C5.23629 20.9527 5.4026 20.9194 5.73521 20.8529L8.81219 20.2375C9.40164 20.1196 9.69637 20.0607 9.95746 19.9209C10.2186 19.7812 10.4311 19.5687 10.8562 19.1436L17.7456 12.2542C16.1239 11.2386 14.7522 9.87628 13.7267 8.27312Z" fill="white"/>
</g>
<rect x="0.5" y="0.5" width="24" height="24" rx="2.5" stroke="white" stroke-opacity="0.6"/>
<defs>
<clipPath id="clip0_131_508">
<rect width="25" height="25" rx="3" fill="white"/>
</clipPath>
</defs>
</svg>
