<svg width="18" height="19" viewBox="0 0 18 19" fill="none" xmlns="http://www.w3.org/2000/svg">
<rect width="18" height="18" transform="translate(0 0.5)" fill="white" fill-opacity="0.5"/>
<path d="M10.6358 3.65949C11.2888 3.22412 11.6153 3.00643 11.9711 3.04166C12.3269 3.07689 12.6044 3.35439 13.1594 3.90938L14.5906 5.34062C15.1456 5.89561 15.4231 6.17311 15.4583 6.52888C15.4936 6.88465 15.2759 7.21118 14.8405 7.86424L13.8314 9.37792C13.6287 9.68192 13.5274 9.83392 13.4338 9.98903C13.0198 10.6755 12.7113 11.4203 12.5187 12.1984C12.4752 12.3742 12.4393 12.5534 12.3677 12.9116L12.2244 13.6279C12.1184 14.1582 11.5038 14.4065 11.0591 14.0986V14.0986C8.4577 12.2976 6.20236 10.0423 4.40138 7.44088V7.44088C4.09351 6.99619 4.34177 6.38165 4.87214 6.27557L5.58836 6.13233C5.94662 6.06068 6.12576 6.02485 6.30159 5.98132C7.07974 5.78869 7.82452 5.48019 8.51097 5.06617C8.66608 4.97261 8.81808 4.87128 9.12208 4.66861L10.6358 3.65949Z" stroke="#9CC8E1" stroke-width="2"/>
<path d="M3.75 14.75L7.125 11.375" stroke="#9CC8E1" stroke-width="2" stroke-linecap="round"/>
</svg>
