<svg width="18" height="18" viewBox="0 0 18 18" fill="none" xmlns="http://www.w3.org/2000/svg">
<path fill-rule="evenodd" clip-rule="evenodd" d="M9.39767 13.3008C10.6216 12.6488 14.25 10.4075 14.25 6.75C14.25 3.85051 11.8995 1.5 9 1.5C6.10051 1.5 3.75 3.85051 3.75 6.75C3.75 10.4075 7.37836 12.6488 8.60232 13.3008C8.85373 13.4348 9.14627 13.4348 9.39767 13.3008ZM9 9C10.2426 9 11.25 7.99264 11.25 6.75C11.25 5.50736 10.2426 4.5 9 4.5C7.75736 4.5 6.75 5.50736 6.75 6.75C6.75 7.99264 7.75736 9 9 9Z" fill="#222222"/>
<path d="M13.5466 12.375C14.0074 12.717 14.25 13.105 14.25 13.5C14.25 13.895 14.0074 14.283 13.5466 14.625C13.0859 14.967 12.4231 15.2511 11.625 15.4486C10.8269 15.646 9.92157 15.75 9 15.75C8.07843 15.75 7.1731 15.646 6.375 15.4486C5.5769 15.2511 4.91415 14.967 4.45337 14.625C3.99258 14.283 3.75 13.895 3.75 13.5C3.75 13.105 3.99258 12.717 4.45337 12.375" stroke="#222222" stroke-width="2" stroke-linecap="round"/>
</svg>
