<svg width="37" height="37" viewBox="0 0 37 37" fill="none" xmlns="http://www.w3.org/2000/svg">
<path d="M15.6716 1.82843C17.2337 0.266331 19.7663 0.26633 21.3284 1.82843L35.1716 15.6716C36.7337 17.2337 36.7337 19.7663 35.1716 21.3284L21.3284 35.1716C19.7663 36.7337 17.2337 36.7337 15.6716 35.1716L1.82843 21.3284C0.266331 19.7663 0.26633 17.2337 1.82843 15.6716L15.6716 1.82843Z" fill="white" fill-opacity="0.5"/>
<path d="M16.1025 2.25932C17.4266 0.9352 19.5734 0.935199 20.8975 2.25932L34.7407 16.1025C36.0648 17.4266 36.0648 19.5734 34.7407 20.8975L20.8975 34.7407C19.5734 36.0648 17.4266 36.0648 16.1025 34.7407L2.25932 20.8975C0.9352 19.5734 0.935199 17.4266 2.25932 16.1025L16.1025 2.25932Z" stroke="black" stroke-opacity="0.2" stroke-width="1.21875"/>
</svg>
