<svg width="18" height="19" viewBox="0 0 18 19" fill="none" xmlns="http://www.w3.org/2000/svg">
<g clip-path="url(#clip0_209_1256)">
<rect width="18" height="18" transform="translate(0 0.415771)" fill="#EBF4F9"/>
<path d="M14.3551 10.1208C14.3851 9.89576 14.4001 9.66326 14.4001 9.41576C14.4001 9.17576 14.3851 8.93576 14.3476 8.71076L15.8701 7.52576C16.0051 7.42076 16.0426 7.21826 15.9601 7.06826L14.5201 4.57826C14.4301 4.41326 14.2426 4.36076 14.0776 4.41326L12.2851 5.13326C11.9101 4.84826 11.5126 4.60826 11.0701 4.42826L10.8001 2.52326C10.7701 2.34326 10.6201 2.21576 10.4401 2.21576H7.56008C7.38008 2.21576 7.23758 2.34326 7.20758 2.52326L6.93758 4.42826C6.49508 4.60826 6.09008 4.85576 5.72258 5.13326L3.93008 4.41326C3.76508 4.35326 3.57758 4.41326 3.48758 4.57826L2.05508 7.06826C1.96508 7.22576 1.99508 7.42076 2.14508 7.52576L3.66758 8.71076C3.63008 8.93576 3.60008 9.18326 3.60008 9.41576C3.60008 9.64826 3.61508 9.89576 3.65258 10.1208L2.13008 11.3058C1.99508 11.4108 1.95758 11.6133 2.04008 11.7633L3.48008 14.2533C3.57008 14.4183 3.75758 14.4708 3.92258 14.4183L5.71508 13.6983C6.09008 13.9833 6.48758 14.2233 6.93008 14.4033L7.20008 16.3083C7.23758 16.4883 7.38008 16.6158 7.56008 16.6158H10.4401C10.6201 16.6158 10.7701 16.4883 10.7926 16.3083L11.0626 14.4033C11.5051 14.2233 11.9101 13.9833 12.2776 13.6983L14.0701 14.4183C14.2351 14.4783 14.4226 14.4183 14.5126 14.2533L15.9526 11.7633C16.0426 11.5983 16.0051 11.4108 15.8626 11.3058L14.3551 10.1208ZM9.00008 12.1158C7.51508 12.1158 6.30008 10.9008 6.30008 9.41576C6.30008 7.93076 7.51508 6.71576 9.00008 6.71576C10.4851 6.71576 11.7001 7.93076 11.7001 9.41576C11.7001 10.9008 10.4851 12.1158 9.00008 12.1158Z" fill="#4D9DCA"/>
</g>
<defs>
<clipPath id="clip0_209_1256">
<rect width="18" height="18" fill="white" transform="translate(0 0.415771)"/>
</clipPath>
</defs>
</svg>
