<svg width="18" height="18" viewBox="0 0 18 18" fill="none" xmlns="http://www.w3.org/2000/svg">
<path d="M7.73037 5.41502C8.21193 4.2145 8.45271 3.61425 8.84389 3.53105C8.94675 3.50918 9.05306 3.50918 9.15592 3.53105C9.5471 3.61425 9.78788 4.2145 10.2694 5.41502C10.5433 6.09773 10.6802 6.43909 10.9364 6.67126C11.0083 6.73638 11.0863 6.79438 11.1694 6.84444C11.4655 7.02293 11.8352 7.05603 12.5745 7.12225C13.8261 7.23433 14.4518 7.29038 14.6429 7.64719C14.6825 7.72108 14.7094 7.80109 14.7226 7.88389C14.7859 8.28366 14.3259 8.70221 13.4058 9.5393L13.1503 9.77175C12.7201 10.1631 12.505 10.3588 12.3806 10.603C12.306 10.7495 12.256 10.9072 12.2325 11.07C12.1934 11.3412 12.2564 11.6251 12.3824 12.1928L12.4274 12.3957C12.6533 13.4138 12.7662 13.9229 12.6252 14.1731C12.4986 14.3979 12.2653 14.5418 12.0076 14.5541C11.7207 14.5678 11.3165 14.2384 10.508 13.5796C9.97533 13.1456 9.70901 12.9285 9.41335 12.8438C9.14316 12.7663 8.85664 12.7663 8.58646 12.8438C8.2908 12.9285 8.02447 13.1456 7.49182 13.5796C6.68333 14.2384 6.27909 14.5678 5.9922 14.5541C5.7345 14.5418 5.50122 14.3979 5.37457 14.1731C5.23357 13.9229 5.34652 13.4138 5.57242 12.3957L5.61743 12.1928C5.74339 11.6251 5.80637 11.3412 5.76729 11.07C5.74384 10.9072 5.69381 10.7495 5.61918 10.603C5.49478 10.3588 5.2797 10.1631 4.84954 9.77175L4.59403 9.5393C3.67394 8.70221 3.2139 8.28366 3.27725 7.88389C3.29037 7.80109 3.31728 7.72108 3.35686 7.64719C3.54796 7.29038 4.17374 7.23433 5.42532 7.12225C6.16465 7.05603 6.53432 7.02293 6.83045 6.84444C6.91351 6.79438 6.99152 6.73638 7.06339 6.67126C7.3196 6.43909 7.45652 6.09773 7.73037 5.41502Z" fill="#222222" stroke="#222222" stroke-width="2"/>
</svg>
