<svg width="18" height="18" viewBox="0 0 18 18" fill="none" xmlns="http://www.w3.org/2000/svg">
<g filter="url(#filter0_f_299_1226)">
<path d="M12.75 3H13.1265C14.035 3 14.4893 3 14.8375 3.174C15.1571 3.33371 15.4163 3.59286 15.576 3.91249C15.75 4.26072 15.75 4.71498 15.75 5.6235V6M12.75 15H13.1265C14.035 15 14.4893 15 14.8375 14.826C15.1571 14.6663 15.4163 14.4071 15.576 14.0875C15.75 13.7393 15.75 13.285 15.75 12.3765V12M5.25 3H4.8735C3.96498 3 3.51072 3 3.16249 3.174C2.84286 3.33371 2.58371 3.59286 2.424 3.91249C2.25 4.26072 2.25 4.71498 2.25 5.6235V6M5.25 15H4.8735C3.96498 15 3.51072 15 3.16249 14.826C2.84286 14.6663 2.58371 14.4071 2.424 14.0875C2.25 13.7393 2.25 13.285 2.25 12.3765V12" stroke="#33363F" stroke-width="1.5" stroke-linecap="round"/>
<path d="M5.71938 12.8021C6.03353 12.3487 6.49671 11.9566 7.07517 11.6783C7.65366 11.3999 8.31797 11.25 9 11.25C9.68203 11.25 10.3463 11.3999 10.9248 11.6782C11.5033 11.9566 11.9665 12.3487 12.2806 12.8021" stroke="#33363F" stroke-width="1.5" stroke-linecap="round"/>
<circle cx="9" cy="6.75" r="2.25" stroke="#33363F" stroke-width="1.5" stroke-linecap="round"/>
</g>
<defs>
<filter id="filter0_f_299_1226" x="-1.2" y="-1.2" width="20.4" height="20.4" filterUnits="userSpaceOnUse" color-interpolation-filters="sRGB">
<feFlood flood-opacity="0" result="BackgroundImageFix"/>
<feBlend mode="normal" in="SourceGraphic" in2="BackgroundImageFix" result="shape"/>
<feGaussianBlur stdDeviation="0.6" result="effect1_foregroundBlur_299_1226"/>
</filter>
</defs>
</svg>
