<svg width="242" height="200" viewBox="0 0 242 200" fill="none" xmlns="http://www.w3.org/2000/svg">
<g clip-path="url(#clip0_209_1292)">
<path d="M31.136 83.879L116.171 30.209L201.207 83.879V162.183H31.136V83.879Z" fill="#E6E7E8"/>
<path d="M201.207 162.577H31.136C31.0315 162.577 30.9313 162.535 30.8574 162.462C30.7835 162.388 30.742 162.287 30.742 162.183V83.88C30.7407 83.814 30.7568 83.7488 30.7885 83.6909C30.8203 83.633 30.8666 83.5844 30.923 83.55L115.96 29.91C116.023 29.8718 116.095 29.8517 116.169 29.8517C116.242 29.8517 116.314 29.8718 116.377 29.91L201.444 83.587C201.561 83.657 201.633 83.782 201.633 83.917V162.222C201.623 162.325 201.573 162.42 201.493 162.486C201.414 162.552 201.311 162.585 201.208 162.576L201.207 162.577ZM31.507 161.79H200.852V84.1L116.172 30.698L31.506 84.099L31.507 161.79Z" fill="#231F20"/>
<path d="M136.887 62.8C139.714 58.134 140.431 52.461 140.171 47.016C139.982 41.0587 138.41 35.227 135.579 29.982C134.429 27.7285 132.741 25.7933 130.664 24.348C128.112 22.774 126.371 23.837 123.874 23.412C121.764 23.05 119.558 21.547 117.219 21.162C111.823 20.24 106.278 21.3982 101.702 24.403C93.6999 29.81 90.0049 40.14 81.7349 45.16C73.6299 50.054 63.2569 48.583 54.1669 51.29C50.3308 52.4384 46.7562 54.3254 43.6439 56.845C41.4948 58.4885 39.7358 60.5869 38.4929 62.99C36.3579 67.443 36.9169 72.746 38.4929 77.444C40.0679 82.274 42.7299 86.886 46.8579 89.884C50.3149 92.378 54.5609 93.526 58.7589 94.282C64.4689 95.312 70.3849 95.698 76.0879 94.462C80.2958 93.6139 84.2182 91.7076 87.4849 88.923C88.8869 87.673 89.6589 85.965 90.9659 84.722C92.7699 83.014 95.5819 81.968 97.6929 80.662C100.993 78.608 104.301 76.421 108.066 75.445C117.628 72.959 131.121 72.282 136.886 62.801L136.887 62.8Z" fill="white"/>
<path d="M68.4698 95.626C65.1818 95.5979 61.9028 95.2766 58.6718 94.666C55.0328 94.013 50.3778 92.912 46.6218 90.213C42.8638 87.514 39.9418 83.131 38.1298 77.623C36.8388 73.69 35.7668 67.891 38.1858 62.903C39.439 60.4372 41.2318 58.2856 43.4308 56.608C46.5777 54.0589 50.1929 52.1504 54.0728 50.99C57.745 50.021 61.4956 49.3785 65.2808 49.07C71.1568 48.425 76.7098 47.811 81.5458 44.892C85.7678 42.342 88.8478 38.282 91.8328 34.356C94.6598 30.635 97.5908 26.787 101.497 24.128C106.138 21.0664 111.767 19.8769 117.25 20.799C118.504 21.064 119.721 21.482 120.874 22.043C121.854 22.501 122.882 22.852 123.938 23.089C124.736 23.201 125.545 23.219 126.348 23.144C127.913 22.9188 129.507 23.2505 130.853 24.081C132.987 25.5468 134.72 27.524 135.894 29.832C138.763 35.124 140.352 41.0148 140.534 47.032C140.841 53.484 139.746 58.834 137.194 63.012C132.468 70.739 122.796 72.714 114.242 74.461C112.083 74.901 110.052 75.311 108.153 75.806C104.758 76.68 101.686 78.599 98.7008 80.456L97.9128 80.968C97.1258 81.432 96.3378 81.865 95.5108 82.29C93.9749 82.9922 92.5414 83.8998 91.2498 84.988C90.6655 85.5856 90.1382 86.2364 89.6748 86.932C89.1263 87.7566 88.4866 88.5167 87.7678 89.198C84.4504 92.0578 80.4517 94.0141 76.1578 94.878C73.6301 95.4045 71.0517 95.6553 68.4698 95.626ZM113.627 21.256C109.457 21.234 105.377 22.456 101.907 24.765C98.0868 27.338 95.2038 31.138 92.4068 34.813C89.3828 38.794 86.2568 42.917 81.9168 45.529C76.9468 48.535 71.0538 49.18 65.3748 49.809C61.6348 50.109 57.9288 50.741 54.3008 51.698C50.5094 52.839 46.9775 54.71 43.9038 57.206C41.7907 58.8104 40.0629 60.8669 38.8468 63.225C36.5628 67.993 37.5788 73.572 38.8468 77.388C40.6118 82.808 43.4548 87.042 47.0698 89.646C50.6858 92.251 55.2698 93.344 58.8298 93.99C65.4618 95.178 71.0698 95.24 75.9928 94.17C80.1637 93.3344 84.0487 91.4377 87.2728 88.663C87.9519 88.0163 88.5567 87.2959 89.0758 86.515C89.5683 85.7808 90.1302 85.0956 90.7538 84.469C92.0934 83.3319 93.5826 82.3841 95.1798 81.652C96.0228 81.219 96.8098 80.81 97.5428 80.362L98.3778 79.842C101.395 77.962 104.514 76.011 108.019 75.122C109.941 74.626 111.957 74.209 114.139 73.768C122.559 72.061 132.089 70.118 136.627 62.658C139.068 58.63 140.155 53.39 139.857 47.079C139.683 41.175 138.126 35.3943 135.311 30.202C134.196 27.9971 132.55 26.1042 130.522 24.694C129.297 23.9508 127.847 23.6716 126.434 23.907C125.576 23.98 124.712 23.957 123.859 23.837C122.75 23.5945 121.672 23.2275 120.645 22.743C119.55 22.222 118.397 21.8336 117.211 21.586C116.028 21.3755 114.829 21.2651 113.627 21.256Z" fill="#231F20"/>
<path d="M169.023 55.09L164.88 70.668L174.86 72.446L180.546 51.635C180.546 51.635 171.677 44.853 170.306 44.805C168.936 44.758 169.023 55.09 169.023 55.09Z" fill="white"/>
<path d="M174.86 72.84H174.789L164.825 71.085C164.771 71.076 164.72 71.0557 164.675 71.0255C164.629 70.9953 164.591 70.9559 164.562 70.9098C164.533 70.8637 164.514 70.812 164.506 70.7581C164.499 70.7042 164.503 70.6493 164.518 70.597L168.629 55.089C168.629 53.421 168.629 45.773 169.795 44.648C169.861 44.5775 169.942 44.5222 170.032 44.4856C170.122 44.449 170.218 44.4321 170.315 44.436C171.725 44.483 179.27 50.203 180.775 51.344C180.837 51.392 180.883 51.4571 180.908 51.5312C180.934 51.6053 180.937 51.6852 180.917 51.761L175.222 72.572C175.197 72.6489 175.149 72.7162 175.084 72.7642C175.019 72.8123 174.941 72.8388 174.86 72.84ZM165.408 70.377L174.592 71.997L180.105 51.784C175.845 48.543 171.071 45.222 170.315 45.199C169.755 45.616 169.409 50.707 169.44 55.113C169.444 55.1468 169.444 55.1811 169.44 55.215L165.408 70.377Z" fill="#231F20"/>
<path d="M158.24 44.9C158.24 44.9 159.65 48.047 161.682 48.559C163.714 49.07 168.133 46.89 168.645 47.174C169.157 47.457 180.815 56.175 181.948 56.434C183.083 56.694 185.17 53.948 186.06 50.683C186.06 50.683 174.718 42.956 173.977 42.138C173.237 41.32 172.355 36.426 171.252 34.632L158.24 44.9Z" fill="white"/>
<path d="M182.067 56.852C181.985 56.8597 181.903 56.8597 181.822 56.852C181.114 56.679 177.396 54.042 171.212 49.534C169.819 48.511 168.606 47.638 168.456 47.544C168.306 47.449 167.511 47.827 166.881 48.047C165.234 48.59 162.981 49.337 161.611 48.976C159.421 48.393 157.972 45.222 157.909 45.089C157.871 45.0107 157.861 44.9216 157.881 44.8368C157.901 44.7521 157.95 44.6768 158.019 44.624L171.008 34.396C171.052 34.3621 171.103 34.3375 171.157 34.324C171.211 34.3104 171.268 34.308 171.323 34.317C171.433 34.34 171.529 34.405 171.591 34.498C172.274 35.8971 172.802 37.3669 173.166 38.881C173.403 39.941 173.768 40.969 174.253 41.941C174.773 42.516 181.72 47.331 186.265 50.431C186.406 50.522 186.47 50.695 186.422 50.856C185.611 53.72 183.602 56.852 182.067 56.852ZM168.51 46.757C168.622 46.7523 168.733 46.7764 168.833 46.827C168.998 46.914 169.825 47.52 171.676 48.865C174.827 51.139 181.262 55.86 182.003 56.057C182.743 56.254 184.618 54.082 185.571 50.848C183.657 49.55 174.362 43.192 173.653 42.398C173.252 41.958 172.913 40.824 172.385 39.03C172.049 37.7339 171.62 36.464 171.101 35.23L158.727 45.01C159.113 45.75 160.303 47.787 161.776 48.157C162.926 48.457 165.139 47.724 166.596 47.245C167.21 46.9996 167.853 46.8355 168.51 46.757Z" fill="#231F20"/>
<path d="M170.638 37.567C170.545 38.3987 170.701 39.2393 171.087 39.982C171.725 41.123 174.552 42.642 174.552 42.642L176.522 38.708L172.662 35.922L170.638 37.567Z" fill="#231F20"/>
<path d="M174.552 43.035C174.489 43.0352 174.427 43.019 174.372 42.988C174.064 42.83 171.417 41.375 170.748 40.171C170.321 39.3538 170.148 38.4273 170.252 37.511C170.264 37.4159 170.312 37.329 170.386 37.268L172.41 35.6C172.479 35.5451 172.565 35.5153 172.654 35.5153C172.743 35.5153 172.828 35.5451 172.898 35.6L176.75 38.385C176.904 38.495 176.957 38.701 176.876 38.873L174.906 42.807C174.882 42.8538 174.849 42.8954 174.808 42.9293C174.768 42.9631 174.721 42.9885 174.671 43.004C174.634 43.0222 174.593 43.0327 174.552 43.035ZM171.016 37.779C170.967 38.4758 171.112 39.1726 171.433 39.793C171.843 40.58 173.473 41.579 174.387 42.107L176.017 38.817L172.677 36.402L171.016 37.779Z" fill="#231F20"/>
<path d="M182.988 48.5979C182.988 48.5979 184.02 45.3479 182.2 45.1199C182.183 44.8337 182.094 44.5565 181.939 44.3151C181.784 44.0737 181.57 43.8762 181.316 43.7419C181.063 43.6075 180.779 43.5406 180.493 43.5478C180.206 43.555 179.926 43.636 179.68 43.783C179.68 43.783 179.097 41.3669 177.191 41.8549C175.285 42.3429 173.773 46.8979 174.041 48.0469C174.308 49.1959 175.789 48.4959 176.537 47.4169C176.537 47.4169 175.568 49.2119 176.214 49.6839C177.159 50.3759 178.152 49.1489 178.955 48.2519C178.955 48.2519 177.766 50.3519 179.515 50.5419C180.861 50.6909 182.114 47.976 182.114 47.976L182.988 48.5979Z" fill="white"/>
<path d="M179.585 50.943H179.435C178.717 50.943 178.133 50.363 178.128 49.644C177.475 50.219 176.718 50.581 175.938 50.006C175.769 49.8541 175.646 49.6577 175.583 49.4393C175.521 49.2209 175.521 48.9893 175.584 48.771C175.244 48.984 174.84 49.071 174.442 49.015C174.231 48.973 174.038 48.8665 173.889 48.7101C173.741 48.5537 173.645 48.3552 173.615 48.142C173.324 46.812 174.891 42.044 177.065 41.485C177.335 41.4044 177.619 41.3811 177.898 41.4164C178.177 41.4517 178.446 41.5448 178.688 41.69C179.248 42.074 179.672 42.624 179.901 43.263C180.156 43.1704 180.427 43.1311 180.698 43.1474C180.969 43.1638 181.234 43.2354 181.476 43.358C181.981 43.6864 182.342 44.196 182.484 44.782C182.827 44.881 183.121 45.102 183.311 45.403C184.012 46.497 183.406 48.488 183.311 48.716C183.294 48.7749 183.263 48.8287 183.221 48.8727C183.178 48.9167 183.125 48.9494 183.067 48.968C183.008 48.9879 182.945 48.994 182.884 48.9857C182.822 48.9774 182.763 48.9549 182.712 48.92L182.177 48.55C181.799 49.353 180.791 50.943 179.585 50.943ZM178.916 47.858C179.001 47.8562 179.085 47.8842 179.152 47.937C179.311 48.057 179.357 48.274 179.262 48.448C179.089 48.755 178.79 49.511 178.979 49.88C178.979 49.935 179.089 50.109 179.522 50.156C180.31 50.242 181.35 48.582 181.72 47.796C181.744 47.7446 181.78 47.6991 181.823 47.6624C181.866 47.6257 181.917 47.5986 181.972 47.583C182.027 47.5662 182.086 47.5624 182.143 47.572C182.201 47.5815 182.255 47.6041 182.302 47.638L182.744 47.945C182.956 47.246 182.932 46.4964 182.674 45.813C182.613 45.7226 182.532 45.6472 182.438 45.5927C182.344 45.5381 182.239 45.5057 182.13 45.498C182.044 45.4857 181.965 45.4461 181.904 45.385C181.842 45.3239 181.802 45.2446 181.79 45.159C181.722 44.7095 181.479 44.3051 181.114 44.034C180.904 43.9502 180.678 43.9153 180.453 43.9318C180.228 43.9482 180.009 44.0156 179.814 44.129C179.762 44.1523 179.706 44.1644 179.649 44.1644C179.592 44.1644 179.536 44.1523 179.484 44.129C179.432 44.1032 179.386 44.0668 179.349 44.0219C179.312 43.9771 179.285 43.925 179.27 43.869C179.121 43.2631 178.771 42.7254 178.278 42.343C178.125 42.2556 177.956 42.2008 177.781 42.1819C177.607 42.163 177.43 42.1803 177.262 42.233C175.584 42.657 174.174 46.953 174.387 47.953C174.442 48.197 174.544 48.22 174.6 48.228C174.924 48.184 175.235 48.067 175.508 47.8859C175.78 47.7047 176.009 47.464 176.175 47.182C176.295 47.012 176.525 46.963 176.703 47.072C176.787 47.1256 176.847 47.2084 176.873 47.3043C176.899 47.4002 176.889 47.5023 176.844 47.591C176.443 48.378 176.222 49.227 176.404 49.361C176.954 49.762 177.608 49.117 178.459 48.173L178.625 47.984C178.662 47.9443 178.707 47.9127 178.757 47.891C178.807 47.8694 178.861 47.8581 178.916 47.858Z" fill="#231F20"/>
<path d="M174.568 38.85C174.568 38.85 173.489 36.977 172.355 38.621C171.221 40.265 169.858 43.341 171.748 43.672C173.638 44.002 175.056 40.479 174.568 38.85Z" fill="white"/>
<path d="M171.992 44.074C171.89 44.0818 171.787 44.0818 171.685 44.074C171.438 44.0442 171.203 43.95 171.004 43.8008C170.805 43.6516 170.649 43.4527 170.551 43.224C170 41.91 171.221 39.573 172.031 38.409C172.166 38.1605 172.363 37.9515 172.604 37.8025C172.844 37.6534 173.119 37.5695 173.402 37.559C174.269 37.599 174.844 38.558 174.907 38.66L174.947 38.747C175.077 39.5322 175.035 40.3362 174.824 41.1036C174.613 41.8709 174.238 42.5835 173.725 43.192C173.515 43.4535 173.252 43.6673 172.953 43.8194C172.654 43.9715 172.327 44.0582 171.992 44.074ZM173.347 38.322C173.087 38.322 172.835 38.597 172.677 38.826C171.725 40.202 170.945 42.099 171.276 42.893C171.371 43.108 171.576 43.253 171.811 43.271C172.066 43.287 172.321 43.2384 172.553 43.1297C172.784 43.021 172.984 42.8556 173.135 42.649C173.554 42.1451 173.865 41.5602 174.048 40.9308C174.231 40.3014 174.282 39.641 174.198 38.991C174.072 38.786 173.718 38.338 173.363 38.322H173.347Z" fill="#231F20"/>
<path d="M169.015 56.143C169.015 56.143 167.771 50.203 167.652 49.141C167.456 47.339 167.881 44.522 169.464 44.081C171.047 43.641 174.671 43.224 174.072 44.813C173.528 46.261 170.354 46.536 170.354 46.536C170.354 46.536 172.544 48.739 172.213 50.935" fill="white"/>
<path d="M169.015 56.537C168.925 56.5374 168.838 56.5071 168.768 56.4513C168.698 56.3955 168.649 56.3174 168.629 56.23C168.582 55.986 167.385 50.25 167.267 49.149C167.062 47.307 167.456 44.199 169.362 43.641C170.354 43.366 173.387 42.799 174.277 43.767C174.551 44.072 174.617 44.512 174.442 44.884C173.993 46.096 172.182 46.576 171.134 46.764C171.796 47.599 172.859 49.244 172.599 50.927C172.583 51.0315 172.527 51.1255 172.442 51.1883C172.357 51.2511 172.251 51.2776 172.146 51.262C172.042 51.2463 171.948 51.1898 171.885 51.1048C171.822 51.0199 171.795 50.9135 171.811 50.809C172.111 48.834 170.086 46.765 170.071 46.749C170.018 46.695 169.981 46.6275 169.965 46.5539C169.948 46.4803 169.952 46.4035 169.976 46.332C170.003 46.2621 170.049 46.2013 170.109 46.1567C170.169 46.1121 170.24 46.0855 170.315 46.08C171.102 46.01 173.324 45.608 173.694 44.609C173.78 44.396 173.694 44.333 173.694 44.302C173.276 43.838 171.094 43.979 169.566 44.396C168.283 44.75 167.857 47.316 168.046 49.031C168.164 50.061 169.393 55.947 169.401 56.001C169.413 56.0517 169.414 56.1043 169.405 56.1556C169.395 56.2069 169.376 56.2557 169.347 56.2992C169.318 56.3427 169.281 56.3798 169.238 56.4085C169.194 56.4372 169.145 56.4567 169.094 56.466L169.015 56.537Z" fill="#231F20"/>
<path d="M192.275 33.6169C192.275 33.6169 179.152 32.3189 173.796 35.4189C172.45 36.2216 171.16 37.1154 169.936 38.0939C167.03 40.3679 164.297 42.9479 162.17 44.3879C157.949 47.2209 153.869 47.7949 151.088 43.2869C148.725 39.4389 150.104 37.6139 153.301 34.1909C154.877 32.4989 158.216 29.7059 161.091 26.6139C162.79 24.8954 164.224 22.9332 165.345 20.7919C167.771 15.6929 167.085 7.87994 167.085 7.87994L192.275 33.6169Z" fill="white"/>
<path d="M156.27 46.977C155.846 46.9807 155.423 46.9358 155.01 46.843C154.109 46.6114 153.265 46.1953 152.533 45.6211C151.801 45.0469 151.196 44.327 150.757 43.507C148.213 39.384 149.781 37.394 153.01 33.932C153.687 33.208 154.664 32.295 155.798 31.248C157.374 29.785 159.146 28.101 160.808 26.354C162.481 24.6677 163.89 22.7395 164.99 20.634C167.353 15.677 166.7 7.96599 166.692 7.88799C166.685 7.80695 166.704 7.72587 166.745 7.65551C166.785 7.58514 166.846 7.52881 166.92 7.49399C166.994 7.45875 167.078 7.44819 167.159 7.46384C167.239 7.47949 167.313 7.52053 167.369 7.58099L192.574 33.341C192.629 33.3987 192.665 33.4718 192.678 33.5506C192.69 33.6294 192.678 33.7101 192.644 33.782C192.609 33.8552 192.553 33.9161 192.483 33.9568C192.413 33.9975 192.332 34.0161 192.251 34.01C192.117 34.01 179.191 32.76 174.009 35.773C172.679 36.5656 171.405 37.4486 170.197 38.416C169.007 39.353 167.834 40.328 166.739 41.265C165.355 42.4878 163.91 43.6381 162.407 44.711C160.123 46.221 158.074 46.977 156.27 46.977ZM167.543 8.87999C167.638 11.24 167.63 16.89 165.708 20.974C164.568 23.1497 163.111 25.1436 161.384 26.89C159.706 28.692 157.918 30.352 156.334 31.824C155.216 32.862 154.24 33.767 153.586 34.468C150.436 37.812 149.176 39.448 151.428 43.123C151.814 43.8518 152.347 44.4932 152.992 45.0076C153.637 45.522 154.38 45.8982 155.177 46.113C157.052 46.522 159.328 45.837 161.951 44.083C163.431 43.0321 164.853 41.9024 166.212 40.699C167.338 39.755 168.496 38.771 169.694 37.835C170.943 36.8412 172.259 35.9344 173.632 35.121C178.192 32.469 188.022 32.925 191.283 33.169L167.543 8.87999Z" fill="#231F20"/>
<path d="M170.638 37.5669C167.731 39.8409 164.218 42.8539 162.17 44.3809C157.492 47.8739 154.53 48.2439 151.474 43.9239C148.324 39.4859 150.104 37.6299 153.301 34.1989C154.877 32.5069 158.216 29.7139 161.091 26.6219C161.091 26.6219 161.272 29.8399 164.478 33.7659C166.053 35.6812 168.22 37.0191 170.638 37.5669Z" fill="#231F20"/>
<path d="M156.24 47.473C155.997 47.4748 155.755 47.4564 155.515 47.418C153.939 47.174 152.553 46.135 151.151 44.152C147.835 39.471 149.773 37.402 152.971 33.971C153.687 33.184 154.664 32.295 155.798 31.248C157.374 29.785 159.146 28.101 160.808 26.354C160.859 26.2967 160.926 26.2563 161.001 26.2381C161.075 26.2198 161.153 26.2247 161.225 26.252C161.373 26.305 161.475 26.442 161.485 26.598C161.485 26.598 161.714 29.746 164.785 33.514C166.304 35.3531 168.385 36.6417 170.709 37.181C170.783 37.1957 170.852 37.2307 170.907 37.282C170.963 37.3334 171.003 37.3991 171.024 37.472C171.039 37.5468 171.034 37.6243 171.009 37.6965C170.984 37.7686 170.94 37.8327 170.882 37.882C169.542 38.928 168.086 40.124 166.668 41.28C165.045 42.61 163.518 43.87 162.407 44.695C159.894 46.591 157.925 47.473 156.239 47.473H156.24ZM160.824 27.48C159.319 29.053 157.744 30.517 156.334 31.823C155.215 32.861 154.239 33.766 153.585 34.467C150.435 37.857 148.859 39.534 151.797 43.696C153.065 45.49 154.286 46.426 155.633 46.639C157.263 46.89 159.201 46.104 161.934 44.066C163.029 43.279 164.557 41.996 166.172 40.675C167.369 39.691 168.598 38.684 169.763 37.755C167.572 37.081 165.628 35.7789 164.171 34.01C162.556 32.1276 161.409 29.8901 160.824 27.48Z" fill="#231F20"/>
<path d="M195.914 32.507C192.976 35.143 186.462 32.948 180.121 27.59C176.897 24.87 174.066 21.7163 171.709 18.219C166.983 11.279 165.51 4.55898 168.472 1.90798C172.126 -1.37302 181.247 2.81297 188.832 11.263C196.418 19.713 199.584 29.218 195.914 32.507Z" fill="#4D9DCA"/>
<path d="M171.772 0.797973C176.238 0.797973 182.98 4.77997 188.809 11.271C196.402 19.721 199.584 29.226 195.898 32.515C194.969 33.2908 193.783 33.6897 192.574 33.633C189.242 33.633 184.65 31.422 180.105 27.598C178.48 26.2274 176.954 24.7444 175.537 23.16C174.149 21.6024 172.87 19.9515 171.709 18.219C166.983 11.279 165.51 4.55897 168.472 1.90797C169.396 1.14144 170.572 0.745821 171.772 0.797973ZM171.772 0.0119728C170.367 -0.0486697 168.992 0.423109 167.92 1.33297C164.715 4.20497 165.967 11.169 171.032 18.643C173.441 22.197 176.318 25.4102 179.585 28.196C184.311 32.13 189.037 34.411 192.558 34.411C193.977 34.4707 195.366 33.9868 196.441 33.058C198.466 31.248 198.804 27.865 197.331 23.538C195.558 18.7797 192.863 14.4185 189.4 10.705C183.524 4.21997 176.624 0.0119728 171.772 0.0119728Z" fill="#231F20"/>
<path d="M185.359 21.043L180.121 27.59C176.897 24.87 174.067 21.7163 171.709 18.219L179.286 13.569L185.359 21.043Z" fill="white"/>
<path d="M185.365 21.0562C186.323 20.2696 185.73 17.9654 184.042 15.9097C182.353 13.8539 180.208 12.8251 179.25 13.6117C178.293 14.3984 178.885 16.7026 180.574 18.7583C182.262 20.8141 184.408 21.8429 185.365 21.0562Z" fill="#231F20"/>
<path d="M184.556 21.689C183.319 21.689 181.649 20.689 180.255 18.989C179.461 18.0567 178.871 16.9688 178.522 15.795C178.231 14.662 178.396 13.773 178.987 13.293C179.577 12.813 180.476 12.821 181.531 13.293C182.614 13.8714 183.561 14.6735 184.311 15.646C186.171 17.904 186.73 20.406 185.587 21.35C185.291 21.575 184.927 21.694 184.556 21.689ZM180.058 13.726C179.852 13.7147 179.648 13.7759 179.483 13.899C179.153 14.174 179.081 14.796 179.286 15.599C179.601 16.6644 180.137 17.651 180.861 18.494C182.516 20.508 184.421 21.295 185.099 20.737C185.776 20.177 185.375 18.156 183.721 16.141C183.024 15.2671 182.152 14.549 181.161 14.033C180.819 13.8546 180.443 13.7501 180.058 13.726ZM178.916 48.645C178.846 48.6455 178.778 48.6265 178.719 48.59C178.674 48.5647 178.634 48.5307 178.603 48.4899C178.571 48.4491 178.548 48.4024 178.535 48.3525C178.522 48.3026 178.519 48.2506 178.526 48.1995C178.533 48.1484 178.55 48.0992 178.577 48.055C179.066 47.2543 179.672 46.5305 180.373 45.907C180.411 45.8661 180.457 45.8337 180.508 45.8119C180.56 45.7902 180.615 45.7797 180.671 45.781C180.727 45.7823 180.782 45.7955 180.832 45.8196C180.883 45.8437 180.927 45.8783 180.963 45.921C180.999 45.9636 181.026 46.0135 181.041 46.0672C181.056 46.1208 181.06 46.1772 181.052 46.2324C181.043 46.2876 181.024 46.3405 180.994 46.3875C180.963 46.4345 180.924 46.4745 180.877 46.505C180.265 47.0803 179.735 47.7367 179.302 48.456C179.262 48.521 179.205 48.5733 179.136 48.607C179.068 48.6406 178.992 48.6531 178.916 48.645ZM176.498 47.811H176.435C176.333 47.79 176.243 47.7294 176.186 47.6424C176.128 47.5555 176.107 47.4492 176.128 47.347C176.413 46.2238 177.078 45.234 178.01 44.546C178.094 44.486 178.197 44.4612 178.299 44.4769C178.401 44.4925 178.493 44.5474 178.554 44.6297C178.616 44.7121 178.643 44.8153 178.63 44.9174C178.617 45.0195 178.564 45.1123 178.483 45.176C177.711 45.7499 177.156 46.5673 176.907 47.496C176.887 47.5883 176.834 47.6705 176.759 47.7281C176.684 47.7858 176.591 47.8151 176.497 47.811H176.498ZM182.074 48.37C182.002 48.3692 181.932 48.3487 181.871 48.3107C181.81 48.2727 181.76 48.2187 181.728 48.1546C181.695 48.0904 181.681 48.0186 181.686 47.9469C181.692 47.8752 181.717 47.8064 181.759 47.748L182.295 46.961C182.358 46.8785 182.45 46.823 182.552 46.8055C182.654 46.7881 182.759 46.81 182.846 46.867C182.93 46.9284 182.987 47.0201 183.005 47.1227C183.023 47.2254 183 47.3309 182.941 47.417L182.397 48.204C182.361 48.2565 182.313 48.2993 182.257 48.3283C182.2 48.3573 182.137 48.3717 182.074 48.37Z" fill="#231F20"/>
<path d="M157.216 46.678C157.131 46.6783 157.048 46.6506 156.98 46.599C153.498 43.956 151.34 40.745 150.915 37.567V37.48C150.89 37.3967 150.894 37.3075 150.925 37.2265C150.956 37.1454 151.014 37.077 151.088 37.032C151.132 37.0033 151.18 36.9837 151.232 36.9745C151.283 36.9652 151.336 36.9665 151.387 36.9781C151.438 36.9898 151.485 37.0117 151.528 37.0424C151.57 37.0732 151.605 37.1121 151.632 37.157C151.678 37.253 151.705 37.357 151.71 37.464C152.112 40.439 154.152 43.46 157.476 45.97C157.543 46.0198 157.592 46.0896 157.617 46.1692C157.641 46.2489 157.64 46.3343 157.613 46.4131C157.585 46.4919 157.534 46.5601 157.466 46.6077C157.397 46.6553 157.315 46.6799 157.232 46.678H157.216ZM155.27 34.12C155.216 34.1193 155.163 34.107 155.114 34.0841C155.065 34.0612 155.022 34.028 154.987 33.987C154.95 33.9511 154.921 33.9082 154.901 33.8609C154.881 33.8136 154.871 33.7628 154.871 33.7115C154.871 33.6601 154.881 33.6093 154.901 33.562C154.921 33.5147 154.95 33.4718 154.987 33.436L159.225 29.502C159.26 29.4645 159.303 29.4346 159.35 29.4142C159.398 29.3938 159.448 29.3833 159.5 29.3833C159.551 29.3833 159.602 29.3938 159.65 29.4142C159.697 29.4346 159.74 29.4645 159.775 29.502C159.812 29.5378 159.841 29.5806 159.86 29.6278C159.88 29.675 159.891 29.7257 159.891 29.777C159.891 29.8282 159.88 29.8789 159.86 29.9261C159.841 29.9733 159.812 30.0161 159.775 30.052L155.538 33.987C155.505 34.0261 155.464 34.058 155.418 34.0809C155.372 34.1038 155.321 34.1171 155.27 34.12ZM155.853 35.065C155.743 35.062 155.639 35.0168 155.562 34.939C155.489 34.8641 155.449 34.7638 155.449 34.6595C155.449 34.5551 155.489 34.4548 155.562 34.38L159.8 30.446C159.855 30.3927 159.925 30.3568 160.001 30.3427C160.076 30.3286 160.155 30.337 160.225 30.3667C160.296 30.3965 160.357 30.4464 160.4 30.5102C160.443 30.5741 160.466 30.649 160.467 30.726C160.467 30.7778 160.457 30.8292 160.437 30.8771C160.417 30.9249 160.388 30.9684 160.351 31.005L156.121 34.939C156.05 35.0123 155.955 35.0571 155.853 35.065ZM156.523 36.15C156.469 36.1514 156.416 36.1408 156.367 36.119C156.318 36.0972 156.274 36.0647 156.239 36.024C156.202 35.9881 156.173 35.9453 156.153 35.8981C156.134 35.8509 156.123 35.8002 156.123 35.749C156.123 35.6977 156.134 35.647 156.153 35.5998C156.173 35.5526 156.202 35.5098 156.239 35.474L160.477 31.54C160.512 31.5023 160.555 31.4723 160.602 31.4518C160.65 31.4313 160.701 31.4208 160.752 31.4208C160.804 31.4208 160.855 31.4313 160.903 31.4518C160.95 31.4723 160.993 31.5023 161.028 31.54C161.065 31.5758 161.094 31.6186 161.113 31.6658C161.133 31.713 161.144 31.7637 161.144 31.815C161.144 31.8662 161.133 31.9169 161.113 31.9641C161.094 32.0113 161.065 32.0541 161.028 32.09L156.791 36.024C156.757 36.0623 156.716 36.0933 156.67 36.1149C156.624 36.1366 156.574 36.1485 156.523 36.15Z" fill="white"/>
<path d="M86.4218 96.838L84.4448 140.444C84.4448 140.444 111.422 140.766 126.939 134.291C128.211 130.134 129.747 126.063 131.539 122.103C133.815 117.508 143.589 110.733 140.518 93.14C140.518 93.14 163.548 107.696 170.039 101.008C176.529 94.32 179.775 63.083 179.775 63.083L166.29 58.756L160.162 78.017C160.162 78.017 121.299 59.236 112.24 56.86C108.877 55.98 98.4238 61.534 86.4438 69.221" fill="#4D9DCA"/>
<path d="M111.406 69.936C111.406 69.936 117.652 89.324 118.723 97.53C119.795 105.737 119.953 119.302 119.953 119.302C119.953 119.302 129.837 89.056 128.616 70.377L111.406 69.936Z" fill="#231F20"/>
<path d="M119.952 119.656H119.905C119.822 119.645 119.747 119.605 119.692 119.542C119.637 119.48 119.606 119.4 119.605 119.317C119.605 119.184 119.432 105.674 118.377 97.585C117.321 89.497 111.138 70.243 111.075 70.047C111.059 69.994 111.055 69.9381 111.065 69.8836C111.074 69.829 111.096 69.7775 111.129 69.7331C111.162 69.6886 111.205 69.6525 111.255 69.6277C111.304 69.6028 111.359 69.5899 111.414 69.59L128.616 70.03C128.797 70.03 128.946 70.173 128.955 70.353C130.175 88.883 120.385 119.136 120.291 119.412C120.268 119.484 120.223 119.547 120.162 119.591C120.101 119.635 120.027 119.658 119.952 119.656ZM111.886 70.298C112.84 73.304 118.101 90.048 119.07 97.483C119.858 103.668 120.165 112.991 120.26 117.153C122.41 110.073 129.2 86.333 128.285 70.731L111.886 70.298ZM79.9398 163.592H154.38L126.962 134.291L84.4678 140.444C84.4678 140.444 79.3798 151.947 79.8598 160.02C79.8918 160.972 79.9158 162.191 79.9398 163.592Z" fill="#231F20"/>
<path d="M154.38 163.985H79.9399C79.8886 163.986 79.8376 163.977 79.7899 163.958C79.7421 163.939 79.6986 163.911 79.6618 163.875C79.6251 163.839 79.5958 163.797 79.5757 163.749C79.5557 163.702 79.5452 163.651 79.5449 163.6C79.5449 162.278 79.4979 161.011 79.4429 160.043C78.9629 151.963 83.8699 140.758 84.0829 140.278C84.111 140.219 84.1527 140.167 84.2048 140.128C84.2568 140.088 84.3175 140.061 84.3819 140.05L126.915 133.897C126.979 133.889 127.043 133.897 127.103 133.919C127.164 133.941 127.218 133.976 127.262 134.023L154.68 163.324C154.732 163.38 154.767 163.451 154.78 163.527C154.793 163.602 154.783 163.68 154.752 163.751C154.721 163.821 154.67 163.881 154.605 163.923C154.54 163.964 154.465 163.986 154.388 163.985H154.38ZM80.3399 163.198H153.467L126.813 134.708L84.7359 140.798C84.0659 142.371 79.8059 152.687 80.2459 159.996C80.2859 160.886 80.3409 162.01 80.3409 163.198H80.3399Z" fill="#231F20"/>
<path d="M126.474 59.511L128.608 70.377C128.608 70.377 128.664 76.672 121.685 76.066C119.624 75.8729 117.631 75.2225 115.853 74.162C114.075 73.1016 112.556 71.6578 111.406 69.936L108.578 50.958C108.821 47.5022 108.54 44.0294 107.743 40.658C115.77 38.998 120.953 31.736 120.953 31.736C120.953 31.736 124.505 35.356 125.954 36.457C127.12 37.2552 128.178 38.1996 129.104 39.267C130.624 41.147 131.074 43.775 131.468 46.096C131.963 48.851 132.208 51.645 132.2 54.444C132.074 59.755 126.474 59.511 126.474 59.511Z" fill="white"/>
<path d="M122.59 76.467H121.653C119.534 76.2767 117.486 75.6121 115.659 74.5226C113.832 73.4331 112.273 71.9465 111.099 70.173C111.076 70.131 111.061 70.0858 111.052 70.039C111.052 70.039 108.232 51.155 108.224 51.061C108.192 50.7444 108.192 50.4255 108.224 50.109C108.406 46.9742 108.125 43.8296 107.389 40.777C107.377 40.7316 107.375 40.6841 107.383 40.6378C107.391 40.5915 107.409 40.5475 107.436 40.509C107.462 40.469 107.496 40.4346 107.535 40.4077C107.574 40.3807 107.618 40.3618 107.665 40.352C115.455 38.778 120.598 31.642 120.645 31.571C120.676 31.5282 120.716 31.4927 120.763 31.4669C120.809 31.441 120.86 31.4253 120.913 31.421C121.02 31.411 121.125 31.452 121.197 31.531C121.236 31.531 124.749 35.143 126.167 36.205C127.333 37.0232 128.392 37.9855 129.317 39.069C130.893 41.052 131.373 43.79 131.751 46.064C132.252 48.84 132.501 51.655 132.491 54.475C132.512 55.1944 132.382 55.9102 132.111 56.5768C131.84 57.2435 131.433 57.8463 130.916 58.347C129.776 59.3166 128.34 59.8711 126.844 59.92L128.9 70.361C128.89 72.0955 128.2 73.757 126.978 74.988C125.756 76.0197 124.188 76.5487 122.591 76.468L122.59 76.467ZM111.753 69.811C112.882 71.4625 114.359 72.8466 116.08 73.866C117.801 74.8853 119.725 75.5151 121.716 75.711C123.796 75.885 125.418 75.452 126.545 74.413C127.601 73.3305 128.209 71.8888 128.246 70.377L126.119 59.582C126.11 59.5281 126.113 59.4729 126.127 59.42C126.14 59.3672 126.165 59.3178 126.199 59.275C126.233 59.232 126.278 59.1981 126.328 59.1761C126.379 59.1541 126.434 59.1448 126.489 59.149C127.944 59.1774 129.362 58.6895 130.491 57.772C130.927 57.3326 131.269 56.8085 131.495 56.232C131.721 55.6555 131.827 55.0389 131.806 54.42C131.813 51.6418 131.568 48.8688 131.074 46.135C130.688 43.877 130.286 41.304 128.79 39.479C127.892 38.4398 126.868 37.5173 125.741 36.733C124.513 35.812 121.874 33.184 121.015 32.287C119.889 33.743 115.171 39.368 108.2 40.942C108.904 43.944 109.17 47.032 108.988 50.109C108.967 50.3706 108.967 50.6334 108.988 50.895C108.988 50.895 108.956 51.092 111.753 69.811Z" fill="#231F20"/>
<path d="M127.427 64.861C127.427 64.861 123.047 65.892 119.645 63.492C116.242 61.092 116.1 58.048 116.1 58.048C116.1 58.048 121.488 60.338 126.474 59.511L127.427 64.861Z" fill="#231F20"/>
<path d="M125.135 65.436C123.114 65.4796 121.128 64.9001 119.448 63.776C115.943 61.305 115.785 58.236 115.785 58.063C115.78 58.0042 115.792 57.9452 115.818 57.8924C115.845 57.8397 115.885 57.7953 115.935 57.764C115.982 57.7289 116.037 57.7069 116.095 57.7C116.153 57.6932 116.211 57.7018 116.265 57.725C116.321 57.725 121.63 59.967 126.45 59.165C126.54 59.1513 126.631 59.1733 126.705 59.2262C126.778 59.2791 126.828 59.3587 126.844 59.448L127.805 64.7979C127.822 64.8867 127.803 64.9784 127.753 65.0535C127.703 65.1286 127.625 65.1811 127.537 65.2C126.748 65.368 125.942 65.4472 125.135 65.436ZM116.573 58.591C117.064 60.4853 118.24 62.1305 119.873 63.209C122.591 65.129 126.009 64.783 127.057 64.586L126.222 59.904C122.165 60.464 118.038 59.141 116.573 58.591Z" fill="#231F20"/>
<path d="M120.661 40.981C120.661 40.981 125.158 45.545 124.497 46.607C123.835 47.669 121.393 47.52 121.393 47.52" fill="white"/>
<path d="M121.772 47.874H121.37C121.324 47.8709 121.28 47.859 121.239 47.8387C121.198 47.8184 121.162 47.7903 121.132 47.756C121.102 47.7216 121.079 47.6817 121.064 47.6384C121.05 47.5952 121.044 47.5495 121.047 47.504C121.053 47.4115 121.095 47.3251 121.164 47.2634C121.234 47.2017 121.324 47.1696 121.417 47.174C122.039 47.174 123.78 47.174 124.205 46.434C124.473 45.994 122.709 43.562 120.417 41.234C120.352 41.1682 120.316 41.0794 120.317 40.987C120.317 40.8947 120.355 40.8063 120.42 40.7415C120.486 40.6766 120.575 40.6406 120.667 40.6412C120.76 40.6419 120.848 40.6792 120.913 40.745C122.323 42.177 125.521 45.632 124.796 46.804C124.198 47.756 122.551 47.874 121.772 47.874Z" fill="#231F20"/>
<path d="M126.883 43.4635C127.421 43.3391 127.741 42.7371 127.598 42.1189C127.455 41.5006 126.903 41.1001 126.365 41.2245C125.827 41.3488 125.507 41.9508 125.65 42.5691C125.792 43.1874 126.344 43.5878 126.883 43.4635Z" fill="#231F20"/>
<path d="M116.848 44.4825C117.386 44.3581 117.706 43.7561 117.563 43.1378C117.42 42.5195 116.868 42.1191 116.33 42.2434C115.792 42.3678 115.472 42.9698 115.615 43.5881C115.757 44.2064 116.31 44.6068 116.848 44.4825Z" fill="#231F20"/>
<path d="M111.154 44.695C110.059 42.925 107.499 42.681 105.711 43.397C105.118 43.6087 104.603 43.9932 104.231 44.5009C103.859 45.0085 103.647 45.616 103.624 46.245C103.61 47.018 103.749 47.785 104.034 48.503C104.51 49.8499 105.224 51.1 106.144 52.193C106.573 52.7655 107.139 53.2205 107.791 53.516C108.63 53.812 109.565 53.569 110.154 52.902" fill="white"/>
<path d="M108.531 54.02C108.234 54.019 107.941 53.963 107.665 53.854C106.959 53.5339 106.342 53.0449 105.869 52.43C104.924 51.3029 104.188 50.016 103.695 48.63C103.394 47.8634 103.247 47.0453 103.262 46.222C103.292 45.5269 103.529 44.8566 103.941 44.2961C104.353 43.7356 104.923 43.3102 105.577 43.074C107.547 42.288 110.303 42.602 111.461 44.514C111.501 44.5949 111.51 44.6879 111.485 44.7747C111.46 44.8616 111.404 44.936 111.327 44.9833C111.25 45.0307 111.158 45.0476 111.069 45.0307C110.98 45.0138 110.901 44.9643 110.847 44.892C109.862 43.318 107.539 43.059 105.845 43.735C105.317 43.9219 104.856 44.2621 104.523 44.7121C104.189 45.162 103.997 45.7013 103.971 46.261C103.96 46.9873 104.091 47.7087 104.356 48.385C104.819 49.6914 105.512 50.904 106.404 51.965C106.797 52.488 107.314 52.905 107.909 53.177C108.621 53.427 109.414 53.218 109.909 52.65C109.94 52.608 109.979 52.5731 110.025 52.5478C110.07 52.5224 110.121 52.5071 110.173 52.5029C110.225 52.4988 110.277 52.5058 110.326 52.5236C110.375 52.5414 110.419 52.5695 110.456 52.6061C110.493 52.6426 110.522 52.6867 110.541 52.7354C110.559 52.784 110.567 52.8361 110.564 52.8881C110.561 52.9401 110.546 52.9907 110.521 53.0366C110.497 53.0825 110.462 53.1225 110.421 53.154C109.932 53.682 109.251 53.995 108.531 54.02Z" fill="#231F20"/>
<path d="M125.072 48.936L119.802 49.448C119.802 49.448 120.897 57.583 123.268 57.363C125.638 57.143 125.647 51.265 125.072 48.936Z" fill="white"/>
<path d="M123.166 57.717C120.685 57.717 119.637 50.887 119.456 49.495C119.447 49.4491 119.449 49.4019 119.461 49.3569C119.473 49.3118 119.495 49.2701 119.526 49.235C119.553 49.1963 119.588 49.1642 119.629 49.141C119.67 49.1178 119.716 49.1041 119.763 49.101L125.04 48.59C125.122 48.5819 125.205 48.6037 125.273 48.6514C125.341 48.6991 125.389 48.7695 125.41 48.85C125.86 50.66 126.01 54.995 124.702 56.828C124.392 57.318 123.876 57.642 123.3 57.709L123.166 57.717ZM120.196 49.762C120.637 52.737 121.772 57.017 123.166 57.017H123.236C123.42 56.991 123.596 56.9247 123.751 56.8227C123.907 56.7207 124.038 56.5855 124.135 56.427C125.166 54.971 125.214 51.328 124.804 49.345L120.196 49.762ZM138.257 112.024C138.194 112.024 138.131 112.007 138.077 111.974C138.023 111.942 137.978 111.896 137.947 111.841C137.917 111.785 137.901 111.723 137.903 111.659C137.905 111.596 137.923 111.535 137.957 111.481C138.013 111.378 143.802 101.653 138.265 81.401C138.243 81.3092 138.256 81.2124 138.303 81.1304C138.35 81.0484 138.426 80.9874 138.517 80.96C138.562 80.947 138.61 80.9432 138.657 80.9489C138.704 80.9546 138.749 80.9696 138.79 80.9931C138.831 81.0166 138.867 81.048 138.896 81.0856C138.925 81.1232 138.946 81.1662 138.958 81.212C144.59 101.795 138.816 111.457 138.564 111.898C138.527 111.943 138.48 111.978 138.426 112C138.373 112.022 138.314 112.03 138.257 112.024Z" fill="#231F20"/>
<path d="M31.136 83.879L116.171 145.164L201.207 83.879V184.419H31.136V83.879Z" fill="white"/>
<path d="M201.207 184.812H31.136C31.0317 184.812 30.9316 184.771 30.8577 184.697C30.7839 184.623 30.7423 184.523 30.742 184.419V83.879C30.7409 83.807 30.7603 83.7362 30.798 83.6749C30.8358 83.6136 30.8902 83.5644 30.955 83.533C31.0164 83.4945 31.0875 83.4741 31.16 83.4741C31.2325 83.4741 31.3035 83.4945 31.365 83.533L116.171 144.645L200.971 83.533C201.032 83.4947 201.103 83.4744 201.175 83.4744C201.248 83.4744 201.319 83.4947 201.38 83.533C201.514 83.596 201.6 83.731 201.6 83.879V184.419C201.598 184.523 201.556 184.621 201.483 184.695C201.409 184.768 201.311 184.81 201.207 184.812ZM31.507 184.026H200.852V84.65L116.4 145.48C116.333 145.529 116.251 145.556 116.167 145.556C116.084 145.556 116.002 145.529 115.935 145.48L31.506 84.65L31.507 184.026Z" fill="#231F20"/>
<path d="M31.1358 184.812C31.065 184.812 30.9954 184.793 30.9343 184.758C30.8733 184.722 30.823 184.67 30.7888 184.608C30.7398 184.517 30.7281 184.41 30.7561 184.31C30.7841 184.211 30.8495 184.126 30.9388 184.073L108.744 139.61C108.835 139.559 108.942 139.546 109.042 139.574C109.142 139.602 109.227 139.669 109.279 139.759C109.305 139.803 109.323 139.852 109.33 139.903C109.338 139.954 109.335 140.006 109.322 140.056C109.308 140.106 109.285 140.153 109.254 140.194C109.222 140.235 109.183 140.269 109.138 140.294L31.3248 184.757C31.2673 184.791 31.2024 184.81 31.1358 184.812ZM201.207 184.812C201.138 184.81 201.07 184.791 201.01 184.757L123.205 140.294C123.114 140.243 123.047 140.158 123.019 140.058C122.991 139.957 123.004 139.85 123.055 139.759C123.108 139.67 123.193 139.604 123.293 139.576C123.393 139.548 123.499 139.56 123.591 139.609L201.396 184.073C201.487 184.124 201.553 184.209 201.582 184.309C201.61 184.41 201.597 184.517 201.546 184.608C201.513 184.67 201.464 184.721 201.404 184.757C201.344 184.793 201.276 184.812 201.206 184.812H201.207Z" fill="#231F20"/>
<path d="M71.6769 138.303C71.6769 138.303 75.1189 147.257 75.9299 147.745C76.7409 148.233 86.3269 152.151 85.6419 153.985C84.9569 155.818 80.6399 153.583 80.6399 153.583C80.6399 153.583 86.8549 160.767 85.2159 162.034C83.5779 163.301 78.0649 165.874 75.8509 164.827C73.6379 163.781 62.6029 150.121 60.2639 144.189" fill="white"/>
<path d="M77.1898 165.488C76.6765 165.504 76.166 165.407 75.6938 165.205C73.3308 164.08 62.2238 150.255 59.9008 144.355C59.8822 144.306 59.8733 144.255 59.8746 144.203C59.876 144.151 59.8876 144.099 59.9088 144.052C59.93 144.004 59.9603 143.961 59.998 143.925C60.0358 143.89 60.0802 143.862 60.1288 143.843C60.1774 143.824 60.2292 143.815 60.2812 143.817C60.3333 143.818 60.3845 143.83 60.432 143.851C60.4796 143.872 60.5225 143.902 60.5583 143.94C60.5941 143.978 60.6222 144.022 60.6408 144.071C63.0048 150.121 74.1108 163.584 76.0248 164.528C77.9388 165.472 83.3178 163.08 84.9878 161.782C85.0237 161.749 85.0527 161.708 85.0729 161.664C85.0932 161.619 85.1044 161.571 85.1058 161.522C85.2558 159.949 81.7188 155.488 80.3798 153.898C80.3193 153.829 80.2849 153.741 80.2826 153.649C80.2803 153.557 80.3103 153.467 80.3674 153.395C80.4245 153.323 80.505 153.273 80.595 153.254C80.6849 153.236 80.7786 153.249 80.8598 153.292C81.6478 153.702 83.9008 154.677 84.9098 154.292C85.002 154.261 85.086 154.209 85.1554 154.141C85.2249 154.073 85.278 153.99 85.3108 153.898C85.4998 153.387 84.2558 152.104 77.2378 148.855C76.3868 148.461 75.9378 148.249 75.7568 148.131C74.9058 147.588 72.1648 140.601 71.3458 138.477C71.3243 138.428 71.3129 138.376 71.3123 138.323C71.3117 138.27 71.3218 138.217 71.3421 138.168C71.3624 138.119 71.3925 138.074 71.4305 138.037C71.4684 138 71.5136 137.971 71.5631 137.952C71.6126 137.932 71.6656 137.923 71.7187 137.925C71.7718 137.927 71.824 137.94 71.8721 137.962C71.9202 137.985 71.9632 138.017 71.9986 138.057C72.034 138.096 72.0609 138.143 72.0778 138.193C73.7168 142.45 75.7018 147.084 76.1898 147.478C76.3238 147.564 76.8988 147.832 77.5678 148.138C83.2238 150.751 86.6108 152.678 86.0508 154.174C85.9048 154.571 85.5908 154.884 85.1928 155.031C84.131 155.247 83.0279 155.121 82.0428 154.669C83.5628 156.566 86.0748 159.972 85.9168 161.593C85.9041 161.746 85.8606 161.894 85.7889 162.029C85.7172 162.164 85.6189 162.284 85.4998 162.38C84.1998 163.364 80.0098 165.488 77.1898 165.488Z" fill="#231F20"/>
<path d="M86.4448 69.252C66.1868 82.25 41.5498 101.378 39.4698 105.847C36.1468 112.928 61.0048 148.54 61.0048 148.54L74.4658 140.01L62.1628 113.314L86.4228 96.83" fill="#4D9DCA"/>
<path d="M70.8889 107.806C70.8304 107.808 70.7724 107.795 70.7201 107.769C70.6677 107.742 70.6227 107.704 70.5889 107.656C70.536 107.577 70.5156 107.481 70.5318 107.387C70.548 107.293 70.5996 107.21 70.6759 107.153L97.9129 88.104C97.9514 88.0755 97.9953 88.0552 98.0419 88.0442C98.0885 88.0331 98.1368 88.0316 98.184 88.0398C98.2311 88.0479 98.2762 88.0655 98.3164 88.0915C98.3566 88.1174 98.3911 88.1513 98.4179 88.191C98.472 88.2703 98.4924 88.3678 98.4746 88.4621C98.4568 88.5565 98.4022 88.6398 98.3229 88.694L71.0929 107.744C71.0336 107.786 70.9619 107.808 70.8889 107.806ZM189.234 161.79L222.244 141.608L194.275 153.245L189.234 161.79Z" fill="#231F20"/>
<path d="M189.234 162.183C189.182 162.183 189.132 162.172 189.084 162.152C189.037 162.131 188.995 162.102 188.959 162.065C188.896 162.003 188.856 161.923 188.845 161.836C188.833 161.749 188.851 161.661 188.896 161.585L193.936 153.048C193.976 152.974 194.04 152.916 194.118 152.883L222.118 141.246C222.209 141.209 222.311 141.208 222.403 141.243C222.495 141.278 222.571 141.346 222.615 141.434C222.66 141.521 222.67 141.623 222.644 141.717C222.617 141.812 222.556 141.894 222.473 141.946L189.439 162.096C189.379 162.141 189.308 162.171 189.234 162.183ZM194.544 153.528L190.376 160.61L217.7 143.906L194.543 153.528H194.544Z" fill="#231F20"/>
<path d="M194.275 153.245L205.066 158.761L222.245 141.608L194.275 153.245Z" fill="white"/>
<path d="M205.066 159.115C205.008 159.117 204.951 159.103 204.901 159.075L194.11 153.568C194.048 153.539 193.996 153.492 193.961 153.433C193.926 153.374 193.909 153.306 193.913 153.238C193.917 153.169 193.939 153.103 193.978 153.046C194.017 152.989 194.07 152.944 194.133 152.915L222.119 141.278C222.195 141.248 222.28 141.244 222.359 141.269C222.437 141.293 222.505 141.343 222.552 141.411C222.599 141.479 222.62 141.562 222.612 141.644C222.603 141.727 222.565 141.803 222.505 141.86L205.326 159.013C205.293 159.048 205.252 159.075 205.207 159.093C205.162 159.11 205.114 159.118 205.066 159.115ZM195.126 153.285L204.996 158.32L220.7 142.64L195.125 153.285H195.126Z" fill="#231F20"/>
<path d="M222.245 141.608L186.705 150.09L178.625 145.471L222.245 141.608Z" fill="white"/>
<path d="M186.674 150.444C186.613 150.444 186.553 150.428 186.501 150.397L178.411 145.787C178.346 145.748 178.295 145.689 178.265 145.619C178.235 145.549 178.228 145.472 178.245 145.398C178.261 145.324 178.301 145.257 178.358 145.206C178.414 145.156 178.485 145.125 178.561 145.117L222.181 141.254C222.271 141.246 222.361 141.273 222.433 141.328C222.504 141.384 222.553 141.464 222.568 141.553C222.583 141.642 222.563 141.734 222.514 141.81C222.464 141.886 222.388 141.941 222.3 141.963L186.761 150.436L186.674 150.444ZM179.767 145.724L186.73 149.697L217.393 142.427L179.767 145.724Z" fill="#231F20"/>
<path d="M186.706 150.09L189.234 161.79L194.275 153.245L222.245 141.608L186.706 150.09Z" fill="white"/>
<path d="M189.234 162.152H189.179C189.107 162.141 189.04 162.11 188.987 162.061C188.933 162.012 188.896 161.948 188.879 161.877L186.359 150.169C186.348 150.123 186.347 150.076 186.355 150.03C186.363 149.984 186.38 149.94 186.404 149.901C186.429 149.861 186.462 149.827 186.5 149.8C186.538 149.773 186.581 149.754 186.627 149.744L222.167 141.27C222.255 141.247 222.348 141.258 222.428 141.301C222.508 141.345 222.568 141.417 222.597 141.504C222.625 141.59 222.619 141.684 222.58 141.767C222.541 141.849 222.472 141.913 222.387 141.946L194.551 153.536L189.573 161.971C189.54 162.031 189.49 162.079 189.43 162.111C189.37 162.143 189.302 162.158 189.234 162.152ZM187.131 150.35L189.391 160.807L193.961 153.057C194.003 152.991 194.062 152.939 194.133 152.907L217.968 142.993L187.131 150.35Z" fill="#231F20"/>
<path d="M181.948 163.419C181.864 163.417 181.783 163.387 181.717 163.336C181.651 163.284 181.603 163.213 181.58 163.132C181.557 163.051 181.561 162.965 181.59 162.887C181.62 162.808 181.674 162.741 181.744 162.695L183.059 161.853C183.146 161.805 183.248 161.792 183.345 161.817C183.441 161.841 183.525 161.9 183.58 161.983C183.634 162.067 183.655 162.167 183.639 162.265C183.623 162.363 183.57 162.452 183.492 162.513L182.162 163.363C182.097 163.4 182.023 163.419 181.948 163.419ZM62.713 199.47C62.6094 199.468 62.5105 199.426 62.4371 199.353C62.3636 199.28 62.3213 199.182 62.319 199.078C62.319 198.863 62.491 198.688 62.705 198.684L64.58 198.644L65.848 198.605C65.9514 198.605 66.0511 198.643 66.1272 198.714C66.2032 198.784 66.2499 198.88 66.258 198.983C66.2603 199.035 66.252 199.088 66.2337 199.137C66.2155 199.186 66.1875 199.231 66.1515 199.269C66.1155 199.308 66.0723 199.338 66.0243 199.359C65.9763 199.381 65.9245 199.392 65.872 199.393L64.604 199.432L62.721 199.471L62.713 199.47ZM59.563 199.47C58.491 199.47 57.436 199.424 56.412 199.384C56.3083 199.378 56.2109 199.332 56.1404 199.256C56.0699 199.179 56.0318 199.079 56.034 198.975C56.0361 198.923 56.0483 198.872 56.0701 198.825C56.0918 198.779 56.1226 198.736 56.1607 198.701C56.1988 198.666 56.2434 198.639 56.292 198.621C56.3407 198.604 56.3923 198.596 56.444 198.598C57.467 198.637 58.514 198.668 59.594 198.684C59.6985 198.684 59.7987 198.725 59.8726 198.799C59.9465 198.873 59.988 198.973 59.988 199.078C59.987 199.131 59.9753 199.184 59.9536 199.233C59.9319 199.282 59.9007 199.326 59.8618 199.362C59.8228 199.399 59.7769 199.428 59.7268 199.446C59.6767 199.465 59.6234 199.473 59.57 199.471L59.563 199.47ZM69.014 199.258C68.9143 199.258 68.8185 199.22 68.7466 199.151C68.6746 199.082 68.6321 198.988 68.628 198.888C68.6249 198.836 68.632 198.785 68.6489 198.736C68.6659 198.687 68.6923 198.642 68.7266 198.603C68.761 198.564 68.8027 198.533 68.8493 198.51C68.8958 198.488 68.9464 198.475 68.998 198.472C70.049 198.423 71.0994 198.363 72.149 198.291C72.201 198.287 72.2533 198.293 72.3029 198.309C72.3524 198.326 72.3981 198.352 72.4371 198.387C72.4762 198.421 72.5079 198.463 72.5302 198.51C72.5525 198.558 72.565 198.609 72.567 198.661C72.5714 198.712 72.5654 198.764 72.5493 198.813C72.5333 198.862 72.5076 198.907 72.4738 198.946C72.4399 198.985 72.3986 199.017 72.3522 199.039C72.3059 199.062 72.2555 199.075 72.204 199.078C71.157 199.148 70.109 199.211 69.054 199.258H69.014ZM53.301 199.203C52.2492 199.126 51.1987 199.032 50.15 198.92C50.0468 198.908 49.9523 198.856 49.8874 198.775C49.8224 198.694 49.792 198.59 49.803 198.487C49.8068 198.435 49.8213 198.384 49.8457 198.338C49.87 198.292 49.9036 198.252 49.9444 198.219C49.9851 198.187 50.0321 198.163 50.0825 198.149C50.1329 198.136 50.1855 198.133 50.237 198.141C51.253 198.243 52.292 198.338 53.387 198.417C53.441 198.413 53.4952 198.42 53.5462 198.438C53.5972 198.456 53.644 198.485 53.6836 198.522C53.7232 198.558 53.7547 198.603 53.7763 198.653C53.7979 198.702 53.8091 198.756 53.8091 198.81C53.8091 198.864 53.7979 198.918 53.7763 198.967C53.7547 199.017 53.7232 199.061 53.6836 199.098C53.644 199.135 53.5972 199.163 53.5462 199.181C53.4952 199.199 53.441 199.207 53.387 199.203H53.301ZM75.3 198.849C75.246 198.853 75.1919 198.845 75.1408 198.827C75.0898 198.809 75.0431 198.781 75.0035 198.744C74.9639 198.707 74.9323 198.663 74.9107 198.613C74.8891 198.564 74.878 198.51 74.878 198.456C74.878 198.402 74.8891 198.348 74.9107 198.299C74.9323 198.249 74.9639 198.204 75.0035 198.168C75.0431 198.131 75.0898 198.102 75.1408 198.084C75.1919 198.066 75.246 198.059 75.3 198.063C76.347 197.976 77.387 197.882 78.45 197.779C78.5537 197.772 78.6563 197.805 78.7369 197.87C78.8174 197.936 78.87 198.03 78.884 198.133C78.8895 198.185 78.8847 198.237 78.8698 198.287C78.8549 198.337 78.8302 198.383 78.7971 198.424C78.7641 198.464 78.7234 198.497 78.6774 198.522C78.6313 198.546 78.5809 198.561 78.529 198.566C77.479 198.666 76.429 198.76 75.379 198.849H75.3ZM47.039 198.527H46.984C45.928 198.369 44.881 198.197 43.833 198.007C43.7288 197.987 43.6367 197.927 43.5771 197.839C43.5174 197.751 43.4951 197.643 43.515 197.539C43.5349 197.435 43.5954 197.343 43.6831 197.283C43.7709 197.223 43.8788 197.201 43.983 197.221C44.983 197.409 46.023 197.583 47.07 197.732C47.1212 197.74 47.1705 197.757 47.2148 197.784C47.2592 197.811 47.2979 197.846 47.3286 197.888C47.3594 197.929 47.3816 197.977 47.394 198.027C47.4064 198.077 47.4088 198.13 47.401 198.181C47.3881 198.274 47.3433 198.359 47.2743 198.422C47.2053 198.485 47.1164 198.522 47.023 198.527H47.039ZM81.569 198.243C81.515 198.251 81.4599 198.247 81.4074 198.232C81.3548 198.218 81.3059 198.192 81.2636 198.158C81.2214 198.123 81.1867 198.08 81.1619 198.032C81.137 197.983 81.1225 197.93 81.1193 197.875C81.116 197.821 81.1241 197.766 81.143 197.715C81.1618 197.664 81.1911 197.617 81.229 197.578C81.2668 197.539 81.3124 197.508 81.3628 197.487C81.4132 197.466 81.4675 197.456 81.522 197.457C82.572 197.341 83.622 197.215 84.673 197.079C84.7255 197.07 84.7792 197.072 84.8309 197.085C84.8826 197.098 84.9313 197.121 84.974 197.152C85.0166 197.184 85.0525 197.224 85.0794 197.27C85.1063 197.316 85.1236 197.367 85.1305 197.42C85.1373 197.473 85.1335 197.526 85.1192 197.577C85.1049 197.629 85.0804 197.677 85.0473 197.718C85.0141 197.76 84.9729 197.794 84.9262 197.82C84.8794 197.845 84.828 197.861 84.775 197.866L81.625 198.236L81.569 198.243ZM87.816 197.457C87.7208 197.456 87.629 197.422 87.5569 197.36C87.4847 197.298 87.4369 197.212 87.422 197.118C87.4143 197.066 87.4169 197.013 87.4299 196.963C87.4428 196.912 87.4657 196.864 87.4973 196.823C87.5289 196.781 87.5685 196.746 87.6137 196.72C87.659 196.693 87.7091 196.677 87.761 196.67L90.864 196.206C90.9147 196.197 90.9667 196.198 91.0169 196.21C91.0671 196.221 91.1145 196.242 91.1564 196.272C91.1982 196.302 91.2336 196.34 91.2605 196.384C91.2874 196.428 91.3053 196.477 91.313 196.528C91.3222 196.579 91.3211 196.632 91.3098 196.683C91.2984 196.733 91.2771 196.781 91.2471 196.824C91.217 196.867 91.1788 196.903 91.1347 196.93C91.0906 196.958 91.0414 196.976 90.99 196.985L87.84 197.449L87.816 197.457ZM40.864 197.378H40.769C39.7421 197.138 38.7205 196.876 37.705 196.591C37.6058 196.56 37.5225 196.492 37.4725 196.401C37.4225 196.31 37.4098 196.203 37.437 196.103C37.4665 196.003 37.5345 195.918 37.6262 195.868C37.7179 195.818 37.8258 195.807 37.926 195.836C38.902 196.111 39.918 196.379 40.95 196.623C41.0006 196.634 41.0485 196.655 41.0907 196.685C41.133 196.715 41.1689 196.753 41.1961 196.797C41.2233 196.841 41.2415 196.89 41.2493 196.941C41.2572 196.992 41.2547 197.045 41.242 197.095C41.2159 197.178 41.163 197.25 41.0918 197.299C41.0205 197.349 40.9348 197.374 40.848 197.37L40.864 197.378ZM94.03 196.473C93.9378 196.474 93.8482 196.442 93.7774 196.383C93.7066 196.324 93.6593 196.242 93.644 196.151C93.6277 196.048 93.6523 195.942 93.7126 195.857C93.7729 195.771 93.8642 195.713 93.967 195.694L97.063 195.144C97.1137 195.134 97.1659 195.134 97.2166 195.144C97.2673 195.154 97.3154 195.175 97.358 195.204C97.4006 195.233 97.4369 195.271 97.4648 195.315C97.4926 195.358 97.5114 195.407 97.52 195.458C97.5384 195.56 97.5156 195.665 97.4566 195.751C97.3976 195.836 97.3071 195.895 97.205 195.914L94.101 196.474H94.031L94.03 196.473ZM34.807 195.616C34.765 195.624 34.722 195.624 34.68 195.616C33.6818 195.265 32.6943 194.885 31.719 194.475C31.6295 194.43 31.5604 194.353 31.5258 194.259C31.4913 194.165 31.4938 194.061 31.5329 193.969C31.572 193.877 31.6447 193.803 31.7363 193.762C31.8279 193.722 31.9315 193.718 32.026 193.751C32.963 194.144 33.948 194.538 34.94 194.876C34.9945 194.881 35.0474 194.898 35.0952 194.925C35.1431 194.951 35.185 194.988 35.2182 195.031C35.2515 195.075 35.2754 195.125 35.2886 195.178C35.3017 195.231 35.3038 195.287 35.2947 195.341C35.2855 195.395 35.2654 195.446 35.2355 195.492C35.2056 195.538 35.1665 195.577 35.1208 195.608C35.0751 195.638 35.0236 195.658 34.9697 195.668C34.9157 195.677 34.8603 195.676 34.807 195.663V195.616ZM100.182 195.316C100.092 195.315 100.005 195.283 99.9346 195.226C99.8646 195.169 99.8158 195.09 99.796 195.002C99.7856 194.951 99.7854 194.899 99.7952 194.848C99.805 194.798 99.8248 194.749 99.8533 194.706C99.8818 194.663 99.9185 194.626 99.9614 194.597C100.004 194.568 100.052 194.548 100.103 194.538L103.183 193.892C103.234 193.882 103.286 193.881 103.337 193.891C103.388 193.901 103.436 193.921 103.479 193.949C103.522 193.978 103.559 194.014 103.588 194.057C103.617 194.1 103.638 194.148 103.648 194.199C103.66 194.249 103.661 194.301 103.652 194.352C103.643 194.403 103.624 194.451 103.596 194.494C103.568 194.538 103.532 194.575 103.489 194.604C103.447 194.633 103.399 194.653 103.348 194.663L100.261 195.309L100.181 195.317L100.182 195.316ZM106.342 193.995C106.239 194.004 106.136 193.972 106.056 193.907C105.976 193.841 105.925 193.747 105.914 193.644C105.903 193.541 105.932 193.438 105.996 193.356C106.059 193.275 106.152 193.222 106.255 193.208C107.279 192.972 108.295 192.736 109.311 192.484C109.521 192.434 109.733 192.564 109.783 192.775C109.796 192.826 109.799 192.878 109.791 192.93C109.783 192.982 109.765 193.031 109.738 193.076C109.711 193.121 109.675 193.16 109.633 193.19C109.591 193.221 109.543 193.243 109.492 193.255C108.476 193.499 107.46 193.743 106.428 193.971L106.342 193.995ZM29.002 193.153C28.9386 193.151 28.8763 193.135 28.82 193.106C27.8753 192.624 26.953 192.098 26.056 191.532C26.012 191.505 25.9737 191.469 25.9436 191.427C25.9134 191.385 25.8918 191.337 25.8801 191.287C25.8684 191.236 25.8667 191.184 25.8753 191.133C25.8839 191.082 25.9025 191.033 25.93 190.989C25.9566 190.944 25.992 190.905 26.034 190.874C26.0761 190.844 26.1239 190.822 26.1746 190.81C26.2253 190.798 26.2779 190.797 26.3292 190.806C26.3805 190.815 26.4294 190.834 26.473 190.863C27.3565 191.404 28.2605 191.911 29.183 192.382C29.2371 192.391 29.2887 192.412 29.3346 192.442C29.3806 192.472 29.4199 192.511 29.4503 192.557C29.4806 192.603 29.5013 192.654 29.511 192.708C29.5208 192.762 29.5195 192.818 29.5071 192.871C29.4947 192.925 29.4715 192.975 29.439 193.019C29.4065 193.063 29.3653 193.101 29.3179 193.128C29.2706 193.156 29.218 193.174 29.1635 193.181C29.109 193.188 29.0537 193.183 29.001 193.168V193.153H29.002ZM112.493 192.508C112.44 192.517 112.385 192.516 112.333 192.504C112.28 192.491 112.23 192.468 112.187 192.436C112.144 192.404 112.107 192.364 112.08 192.317C112.053 192.27 112.035 192.218 112.029 192.165C112.022 192.111 112.027 192.057 112.042 192.005C112.058 191.953 112.083 191.905 112.118 191.863C112.152 191.822 112.195 191.788 112.243 191.763C112.291 191.739 112.344 191.724 112.398 191.721L115.438 190.934C115.541 190.911 115.649 190.928 115.739 190.983C115.829 191.038 115.894 191.126 115.921 191.228C115.948 191.33 115.934 191.438 115.882 191.53C115.83 191.622 115.745 191.691 115.644 191.721C114.635 191.994 113.619 192.256 112.595 192.508C112.556 192.519 112.516 192.519 112.477 192.508H112.493ZM118.573 190.863C118.488 190.864 118.404 190.837 118.336 190.786C118.268 190.734 118.219 190.662 118.196 190.58C118.169 190.479 118.183 190.371 118.234 190.28C118.286 190.189 118.371 190.121 118.471 190.092L121.488 189.219C121.587 189.19 121.694 189.2 121.785 189.249C121.877 189.298 121.945 189.38 121.976 189.479C121.992 189.528 121.997 189.581 121.992 189.632C121.987 189.684 121.971 189.734 121.946 189.779C121.921 189.825 121.887 189.865 121.847 189.897C121.806 189.929 121.759 189.952 121.709 189.966C120.709 190.266 119.7 190.564 118.684 190.847C118.644 190.862 118.601 190.868 118.558 190.863H118.573ZM23.685 189.848C23.5998 189.848 23.5168 189.821 23.449 189.769C22.5973 189.138 21.777 188.466 20.991 187.755C20.925 187.68 20.8898 187.583 20.8926 187.484C20.8953 187.384 20.9358 187.289 21.0058 187.218C21.0758 187.148 21.1701 187.106 21.2696 187.102C21.3692 187.098 21.4665 187.132 21.542 187.197C22.31 187.892 23.112 188.548 23.945 189.164C24.119 189.294 24.154 189.541 24.023 189.714C23.9812 189.761 23.9287 189.798 23.87 189.821C23.8113 189.845 23.7479 189.854 23.685 189.848ZM124.591 189.061C124.508 189.062 124.426 189.036 124.359 188.986C124.292 188.937 124.244 188.866 124.221 188.786C124.205 188.736 124.199 188.684 124.204 188.632C124.208 188.58 124.223 188.53 124.247 188.484C124.271 188.437 124.304 188.396 124.345 188.363C124.385 188.33 124.431 188.305 124.481 188.29C125.489 187.983 126.481 187.66 127.474 187.346C127.523 187.329 127.575 187.322 127.627 187.325C127.679 187.329 127.729 187.343 127.776 187.366C127.822 187.39 127.863 187.423 127.896 187.462C127.93 187.502 127.955 187.548 127.97 187.598C128.002 187.697 127.994 187.805 127.946 187.898C127.899 187.99 127.817 188.061 127.718 188.093C126.726 188.416 125.726 188.731 124.71 189.046C124.672 189.061 124.632 189.069 124.591 189.069V189.061ZM130.585 187.118C130.532 187.129 130.478 187.129 130.424 187.119C130.371 187.108 130.321 187.087 130.277 187.056C130.232 187.026 130.194 186.986 130.165 186.941C130.136 186.895 130.117 186.844 130.109 186.791C130.1 186.737 130.102 186.683 130.116 186.63C130.129 186.578 130.152 186.529 130.185 186.486C130.218 186.443 130.259 186.407 130.306 186.38C130.353 186.354 130.405 186.337 130.459 186.331C131.459 185.993 132.452 185.654 133.429 185.308C133.635 185.24 133.859 185.348 133.933 185.552C133.951 185.6 133.958 185.651 133.956 185.702C133.954 185.753 133.941 185.803 133.919 185.849C133.897 185.896 133.866 185.937 133.828 185.971C133.79 186.005 133.745 186.031 133.697 186.048C132.712 186.394 131.72 186.74 130.711 187.078L130.585 187.118ZM19.045 185.623C18.9886 185.622 18.933 185.61 18.8815 185.587C18.8301 185.564 18.784 185.531 18.746 185.489C18.0383 184.698 17.3756 183.868 16.761 183.003C16.7275 182.961 16.7029 182.913 16.6886 182.862C16.6743 182.81 16.6707 182.756 16.6779 182.703C16.6852 182.65 16.7032 182.6 16.7308 182.554C16.7584 182.508 16.795 182.468 16.8385 182.437C16.8819 182.406 16.9312 182.384 16.9835 182.373C17.0357 182.361 17.0897 182.361 17.1421 182.371C17.1946 182.381 17.2444 182.402 17.2886 182.432C17.3328 182.462 17.3703 182.501 17.399 182.546C17.9979 183.388 18.645 184.195 19.337 184.962C19.4098 185.037 19.4505 185.137 19.4505 185.241C19.4505 185.346 19.4098 185.446 19.337 185.521C19.2985 185.558 19.2529 185.587 19.2028 185.606C19.1528 185.625 19.0994 185.633 19.046 185.631L19.045 185.623ZM136.525 185.041C136.445 185.039 136.367 185.013 136.301 184.967C136.235 184.92 136.184 184.856 136.155 184.781C136.137 184.732 136.129 184.681 136.132 184.629C136.134 184.578 136.146 184.527 136.168 184.48C136.19 184.433 136.221 184.391 136.259 184.356C136.297 184.322 136.341 184.295 136.39 184.277C137.39 183.915 138.367 183.546 139.344 183.184C139.437 183.162 139.535 183.175 139.619 183.22C139.704 183.265 139.769 183.339 139.803 183.428C139.837 183.518 139.837 183.617 139.803 183.706C139.769 183.796 139.704 183.87 139.62 183.915C138.643 184.285 137.659 184.647 136.658 185.009C136.618 185.034 136.571 185.048 136.524 185.049L136.525 185.041ZM142.416 182.814C142.313 182.83 142.208 182.805 142.123 182.744C142.038 182.683 141.98 182.592 141.962 182.49C141.943 182.387 141.966 182.281 142.024 182.195C142.082 182.108 142.172 182.048 142.274 182.027L145.196 180.87C145.396 180.789 145.625 180.884 145.708 181.083C145.748 181.18 145.748 181.289 145.708 181.386C145.669 181.483 145.592 181.561 145.496 181.603L142.566 182.798C142.518 182.814 142.467 182.822 142.416 182.822V182.814ZM15.406 180.516C15.3352 180.517 15.2654 180.498 15.2044 180.462C15.1434 180.427 15.0934 180.374 15.06 180.312C14.5455 179.382 14.0854 178.423 13.682 177.44C13.6422 177.343 13.6426 177.234 13.6831 177.137C13.7236 177.04 13.8009 176.964 13.898 176.924C13.9951 176.884 14.104 176.885 14.2007 176.925C14.2975 176.966 14.3742 177.043 14.414 177.14C14.801 178.1 15.248 179.032 15.754 179.934C15.854 180.126 15.784 180.362 15.596 180.469C15.5373 180.499 15.4722 180.516 15.406 180.516ZM148.26 180.461C148.182 180.463 148.105 180.44 148.04 180.396C147.975 180.353 147.926 180.29 147.898 180.217C147.858 180.122 147.858 180.015 147.896 179.92C147.934 179.824 148.009 179.747 148.103 179.706C149.087 179.296 150.056 178.919 151.001 178.479C151.096 178.443 151.201 178.445 151.294 178.484C151.388 178.523 151.463 178.597 151.503 178.69C151.544 178.783 151.547 178.888 151.512 178.983C151.478 179.078 151.408 179.157 151.317 179.202L148.41 180.43C148.363 180.452 148.312 180.462 148.26 180.461ZM154.042 177.967C153.966 177.966 153.892 177.944 153.828 177.904C153.764 177.864 153.713 177.807 153.679 177.739C153.657 177.692 153.645 177.64 153.643 177.588C153.641 177.536 153.65 177.484 153.67 177.435C153.689 177.386 153.718 177.342 153.755 177.305C153.791 177.268 153.835 177.238 153.884 177.219C154.861 176.779 155.814 176.354 156.744 175.921C156.838 175.885 156.942 175.886 157.035 175.923C157.128 175.961 157.203 176.033 157.245 176.124C157.287 176.215 157.293 176.319 157.261 176.414C157.229 176.51 157.162 176.589 157.074 176.637C156.137 177.07 155.184 177.503 154.199 177.936C154.15 177.958 154.096 177.969 154.042 177.967ZM159.768 175.339C159.694 175.341 159.621 175.321 159.558 175.282C159.495 175.243 159.445 175.186 159.414 175.119C159.391 175.073 159.378 175.022 159.374 174.97C159.371 174.919 159.378 174.867 159.395 174.818C159.411 174.769 159.437 174.724 159.472 174.685C159.506 174.646 159.548 174.615 159.594 174.592C160.571 174.135 161.517 173.679 162.43 173.23C162.523 173.189 162.629 173.185 162.725 173.22C162.821 173.255 162.899 173.326 162.944 173.418C162.989 173.509 162.997 173.615 162.965 173.712C162.934 173.809 162.867 173.89 162.777 173.939L159.933 175.308C159.881 175.33 159.825 175.34 159.768 175.339ZM13.028 174.686C12.9418 174.685 12.8582 174.657 12.79 174.604C12.7217 174.552 12.6725 174.478 12.65 174.395C12.3616 173.373 12.1303 172.335 11.957 171.287C11.9403 171.183 11.9657 171.076 12.0277 170.99C12.0897 170.905 12.1831 170.847 12.2875 170.83C12.3919 170.814 12.4986 170.839 12.5842 170.901C12.6698 170.963 12.7273 171.057 12.744 171.161C12.902 172.191 13.117 173.209 13.39 174.214C13.4045 174.264 13.4091 174.316 13.4035 174.367C13.3979 174.418 13.3822 174.468 13.3573 174.514C13.3324 174.559 13.2988 174.599 13.2584 174.631C13.2181 174.664 13.1717 174.688 13.122 174.702L13.028 174.686ZM165.408 172.586C165.334 172.587 165.261 172.567 165.198 172.528C165.135 172.488 165.085 172.432 165.053 172.365C165.006 172.272 164.998 172.164 165.031 172.065C165.064 171.967 165.134 171.885 165.227 171.838C166.195 171.35 167.133 170.878 168.031 170.406C168.123 170.366 168.226 170.363 168.32 170.397C168.414 170.43 168.492 170.498 168.538 170.587C168.584 170.676 168.595 170.779 168.568 170.875C168.541 170.971 168.478 171.054 168.393 171.106C167.495 171.57 166.558 172.05 165.581 172.538C165.528 172.568 165.469 172.585 165.408 172.586ZM171 169.682C170.929 169.683 170.859 169.665 170.798 169.628C170.736 169.592 170.686 169.54 170.653 169.477C170.605 169.385 170.594 169.277 170.624 169.177C170.653 169.078 170.72 168.993 170.811 168.942C171.788 168.422 172.709 167.919 173.576 167.447C173.621 167.414 173.673 167.392 173.727 167.381C173.782 167.37 173.838 167.37 173.893 167.382C173.947 167.395 173.998 167.418 174.043 167.452C174.087 167.485 174.124 167.528 174.151 167.576C174.178 167.625 174.194 167.679 174.199 167.735C174.203 167.79 174.196 167.846 174.177 167.898C174.159 167.951 174.129 167.999 174.091 168.039C174.052 168.079 174.006 168.111 173.954 168.132C173.087 168.612 172.166 169.115 171.181 169.642C171.132 169.667 171.079 169.681 171.024 169.682H171ZM11.972 168.525C11.8717 168.525 11.7752 168.487 11.7022 168.418C11.6292 168.349 11.5851 168.255 11.579 168.155C11.579 167.542 11.531 166.912 11.531 166.291V164.977C11.5318 164.925 11.5433 164.873 11.5646 164.826C11.5859 164.778 11.6166 164.735 11.655 164.7C11.6933 164.665 11.7385 164.638 11.7876 164.62C11.8368 164.603 11.889 164.596 11.941 164.599C11.9928 164.601 12.0436 164.613 12.0906 164.635C12.1376 164.657 12.1799 164.687 12.215 164.726C12.2501 164.764 12.2774 164.808 12.2952 164.857C12.3131 164.906 12.3212 164.957 12.319 165.009V166.291C12.319 166.897 12.319 167.511 12.366 168.108C12.3693 168.16 12.3622 168.211 12.3454 168.26C12.3285 168.309 12.3021 168.355 12.2677 168.393C12.2334 168.432 12.1916 168.464 12.145 168.486C12.0984 168.509 12.0477 168.522 11.996 168.525H11.972ZM176.514 166.637C176.428 166.636 176.345 166.607 176.278 166.554C176.21 166.501 176.161 166.428 176.139 166.345C176.117 166.263 176.122 166.175 176.154 166.095C176.186 166.016 176.243 165.949 176.317 165.905C177.333 165.323 178.247 164.795 179.034 164.331C179.078 164.304 179.128 164.286 179.179 164.278C179.231 164.27 179.283 164.272 179.334 164.284C179.385 164.297 179.432 164.319 179.474 164.35C179.516 164.381 179.551 164.42 179.578 164.465C179.688 164.653 179.628 164.893 179.444 165.008C178.542 165.548 177.631 166.073 176.711 166.582C176.658 166.613 176.598 166.631 176.537 166.637H176.514ZM12.248 162.254H12.193C12.0891 162.239 11.9953 162.183 11.9319 162.099C11.8685 162.015 11.8406 161.91 11.854 161.806C11.996 160.775 12.177 159.721 12.414 158.658C12.464 158.448 12.674 158.315 12.886 158.359C12.9369 158.37 12.9851 158.391 13.0278 158.421C13.0705 158.451 13.1068 158.489 13.1347 158.533C13.1626 158.577 13.1815 158.626 13.1903 158.677C13.1991 158.729 13.1976 158.781 13.186 158.832C12.9563 159.843 12.7722 160.864 12.634 161.892C12.6261 161.989 12.5822 162.08 12.5108 162.147C12.4395 162.214 12.3458 162.252 12.248 162.254ZM13.618 156.124C13.579 156.132 13.539 156.132 13.5 156.124C13.4503 156.109 13.4042 156.084 13.3642 156.051C13.3242 156.017 13.2912 155.977 13.267 155.931C13.2428 155.885 13.228 155.834 13.2234 155.782C13.2187 155.731 13.2244 155.679 13.24 155.629C13.548 154.638 13.91 153.631 14.312 152.639C14.3585 152.553 14.435 152.488 14.5268 152.456C14.6186 152.423 14.7191 152.426 14.8091 152.463C14.899 152.5 14.972 152.569 15.0139 152.657C15.0558 152.745 15.0637 152.846 15.036 152.939C14.65 153.906 14.296 154.889 13.989 155.865C13.9636 155.942 13.9139 156.01 13.8472 156.056C13.7805 156.103 13.7005 156.127 13.619 156.125L13.618 156.124ZM15.982 150.302C15.9069 150.324 15.8266 150.322 15.753 150.295C15.7064 150.272 15.6647 150.241 15.6304 150.202C15.596 150.163 15.5697 150.118 15.5529 150.069C15.5361 150.019 15.5291 149.968 15.5324 149.916C15.5357 149.864 15.5491 149.813 15.572 149.767C16.037 148.831 16.549 147.895 17.092 146.982C17.1173 146.937 17.1514 146.897 17.1922 146.866C17.2331 146.834 17.2799 146.811 17.3299 146.797C17.3799 146.784 17.4321 146.781 17.4833 146.788C17.5345 146.796 17.5837 146.813 17.628 146.84C17.815 146.953 17.878 147.194 17.77 147.383C17.234 148.273 16.738 149.193 16.28 150.121C16.2439 150.173 16.1959 150.216 16.14 150.247C16.084 150.277 16.0216 150.293 15.958 150.295L15.982 150.302ZM19.187 144.889C19.0832 144.892 18.982 144.856 18.904 144.787C18.8617 144.758 18.8256 144.721 18.7979 144.677C18.7702 144.634 18.7513 144.586 18.7425 144.535C18.7336 144.485 18.735 144.433 18.7464 144.383C18.7578 144.333 18.7791 144.286 18.809 144.244C19.4126 143.373 20.0484 142.525 20.715 141.702C20.7808 141.62 20.8763 141.568 20.9804 141.557C21.0846 141.546 21.189 141.577 21.2705 141.642C21.3521 141.708 21.4041 141.804 21.4153 141.908C21.4265 142.012 21.3958 142.116 21.33 142.198C20.67 143.002 20.0445 143.834 19.455 144.692C19.4246 144.745 19.3826 144.79 19.3322 144.824C19.2818 144.858 19.2243 144.88 19.164 144.889H19.187ZM23.126 140.011C23.0483 140.014 22.9716 139.993 22.9059 139.951C22.8402 139.91 22.7887 139.849 22.758 139.778C22.7273 139.706 22.7189 139.627 22.7339 139.551C22.7489 139.474 22.7866 139.404 22.842 139.35C23.5652 138.575 24.3247 137.834 25.118 137.131C25.154 137.094 25.1969 137.065 25.2443 137.045C25.2917 137.025 25.3426 137.015 25.394 137.015C25.4454 137.015 25.4963 137.025 25.5437 137.045C25.5911 137.065 25.6341 137.094 25.67 137.131C25.707 137.167 25.7363 137.211 25.7564 137.259C25.7764 137.307 25.7867 137.358 25.7867 137.41C25.7867 137.462 25.7764 137.514 25.7564 137.562C25.7363 137.61 25.707 137.653 25.67 137.69C24.8921 138.38 24.1479 139.108 23.44 139.87C23.4013 139.915 23.353 139.951 23.2987 139.975C23.2444 139.999 23.1854 140.011 23.126 140.01V140.011ZM27.836 135.77C27.7768 135.77 27.7182 135.757 27.665 135.731C27.6118 135.705 27.5652 135.667 27.529 135.62C27.4651 135.536 27.4367 135.431 27.4498 135.327C27.4629 135.222 27.5165 135.127 27.599 135.062C28.025 134.747 28.45 134.432 28.883 134.125C28.9253 134.093 28.9736 134.069 29.0252 134.056C29.0767 134.043 29.1303 134.041 29.1829 134.049C29.2354 134.057 29.2857 134.076 29.3307 134.104C29.3758 134.133 29.4147 134.17 29.4451 134.213C29.4755 134.257 29.4967 134.306 29.5075 134.358C29.5184 134.41 29.5185 134.464 29.5081 134.516C29.4976 134.568 29.4767 134.618 29.4466 134.661C29.4165 134.705 29.3779 134.742 29.333 134.771C28.907 135.07 28.49 135.376 28.08 135.691C28.0098 135.744 27.9239 135.772 27.836 135.77ZM204.475 88.757C204.425 88.7583 204.376 88.7493 204.33 88.7303C204.284 88.7114 204.242 88.683 204.208 88.6469C204.171 88.6111 204.142 88.5683 204.123 88.5211C204.103 88.4739 204.092 88.4232 204.092 88.3719C204.092 88.3207 204.103 88.27 204.123 88.2228C204.142 88.1756 204.171 88.1328 204.208 88.0969C204.208 88.0969 204.594 87.6869 205.263 86.9469C205.295 86.9005 205.336 86.8614 205.383 86.8322C205.431 86.8029 205.485 86.7843 205.541 86.7774C205.596 86.7705 205.653 86.7756 205.706 86.7924C205.76 86.8091 205.809 86.8371 205.851 86.8744C205.893 86.9117 205.926 86.9576 205.949 87.0089C205.972 87.0602 205.983 87.1157 205.983 87.1718C205.982 87.2279 205.97 87.2833 205.946 87.3342C205.923 87.3851 205.888 87.4303 205.846 87.4669C205.169 88.2539 204.775 88.6389 204.775 88.6389C204.736 88.6791 204.69 88.7104 204.638 88.7308C204.586 88.7511 204.531 88.7601 204.475 88.757ZM207.626 85.2089C207.531 85.2084 207.439 85.1748 207.366 85.1139C207.329 85.0781 207.3 85.0353 207.281 84.9881C207.261 84.9409 207.25 84.8902 207.25 84.8389C207.25 84.7877 207.261 84.737 207.281 84.6898C207.3 84.6426 207.329 84.5998 207.366 84.5639C207.973 83.8399 208.65 82.9899 209.375 82.1159C209.423 82.0549 209.489 82.0096 209.563 81.9858C209.637 81.962 209.717 81.9607 209.792 81.9821C209.867 82.0035 209.934 82.0466 209.984 82.1061C210.034 82.1655 210.066 82.2385 210.075 82.3159C210.081 82.3673 210.076 82.4192 210.061 82.4687C210.046 82.5182 210.022 82.5642 209.989 82.6039C209.328 83.4359 208.653 84.2571 207.965 85.0669C207.925 85.1169 207.873 85.1561 207.813 85.1809C207.754 85.2057 207.69 85.2153 207.626 85.2089ZM211.564 80.2519C211.479 80.2483 211.398 80.2209 211.328 80.1729C211.245 80.1077 211.191 80.0124 211.178 79.9078C211.165 79.8032 211.194 79.6976 211.258 79.6139C211.897 78.7775 212.522 77.9304 213.132 77.0729C213.195 76.9937 213.286 76.9416 213.386 76.9273C213.486 76.9129 213.588 76.9374 213.67 76.9958C213.753 77.0541 213.81 77.1418 213.83 77.241C213.85 77.3401 213.832 77.4431 213.778 77.5289C213.132 78.4259 212.502 79.2839 211.879 80.0939C211.848 80.142 211.806 80.1825 211.757 80.2124C211.708 80.2423 211.653 80.261 211.596 80.2669L211.564 80.2519ZM215.266 75.0819C215.194 75.084 215.123 75.0658 215.06 75.0294C214.998 74.993 214.947 74.9399 214.914 74.876C214.88 74.8122 214.865 74.7402 214.87 74.6683C214.875 74.5963 214.901 74.5273 214.943 74.4689C215.533 73.595 216.108 72.7109 216.668 71.8169C216.725 71.7296 216.813 71.6676 216.915 71.6441C217.016 71.6206 217.123 71.6374 217.212 71.6909C217.394 71.8089 217.447 72.0509 217.33 72.2339C216.767 73.1353 216.19 74.0271 215.597 74.9089C215.563 74.9587 215.519 75.0002 215.467 75.0302C215.415 75.0602 215.357 75.0779 215.297 75.0819H215.266ZM218.637 69.6999C218.568 69.7011 218.5 69.682 218.441 69.6449C218.396 69.6197 218.357 69.5856 218.325 69.5448C218.293 69.504 218.27 69.4573 218.257 69.4074C218.244 69.3576 218.241 69.3055 218.248 69.2544C218.255 69.2033 218.272 69.1542 218.299 69.1099C218.825 68.1989 219.329 67.2753 219.811 66.3399C219.861 66.2511 219.944 66.1853 220.042 66.1563C220.14 66.1273 220.245 66.1373 220.336 66.1842C220.427 66.2312 220.496 66.3114 220.529 66.4081C220.561 66.5049 220.555 66.6105 220.512 66.7029C220.022 67.6484 219.51 68.582 218.976 69.5029C218.944 69.5581 218.9 69.6048 218.847 69.6391C218.793 69.6734 218.732 69.6943 218.669 69.6999H218.637ZM221.56 64.0589C221.505 64.0703 221.449 64.0703 221.394 64.0589C221.347 64.0378 221.305 64.0074 221.27 63.9696C221.234 63.9318 221.207 63.8873 221.19 63.8388C221.172 63.7904 221.164 63.7389 221.167 63.6874C221.17 63.6358 221.183 63.5854 221.205 63.5389C221.655 62.5559 222.072 61.5799 222.434 60.6359C222.452 60.5872 222.48 60.5425 222.516 60.5046C222.552 60.4667 222.595 60.4362 222.642 60.415C222.69 60.3938 222.741 60.3823 222.793 60.3811C222.846 60.3798 222.897 60.389 222.946 60.4079C223.148 60.4879 223.25 60.7149 223.174 60.9189C222.796 61.8789 222.387 62.8709 221.922 63.8619C221.887 63.9192 221.839 63.9672 221.782 64.0015C221.724 64.0359 221.659 64.0556 221.592 64.0589H221.56ZM223.852 58.1419H223.734C223.635 58.1095 223.552 58.0395 223.503 57.9468C223.454 57.8542 223.444 57.7462 223.474 57.6459C223.782 56.646 224.045 55.6327 224.261 54.6089C224.283 54.5066 224.345 54.4171 224.432 54.3602C224.476 54.332 224.525 54.3126 224.576 54.3033C224.626 54.2939 224.679 54.2946 224.73 54.3054C224.78 54.3163 224.828 54.337 224.871 54.3664C224.914 54.3958 224.95 54.4333 224.978 54.4768C225.006 54.5203 225.026 54.569 225.035 54.6199C225.045 54.6709 225.044 54.7233 225.033 54.7739C224.798 55.8298 224.535 56.8795 224.246 57.9219C224.212 57.9888 224.16 58.0449 224.096 58.0838C224.032 58.1226 223.958 58.1428 223.883 58.1419H223.852ZM225.175 51.9419H225.135C225.032 51.9318 224.937 51.8815 224.871 51.802C224.805 51.7225 224.772 51.6201 224.781 51.5169C224.781 51.1869 224.844 50.8639 224.86 50.5329C224.86 49.8019 224.93 49.0779 224.954 48.3779C224.954 48.3258 224.964 48.2742 224.985 48.2263C225.005 48.1783 225.035 48.135 225.072 48.0989C225.11 48.0628 225.154 48.0347 225.203 48.0163C225.252 47.9979 225.304 47.9896 225.356 47.9919C225.46 47.9958 225.558 48.0398 225.63 48.1146C225.702 48.1894 225.742 48.2891 225.742 48.3929C225.742 49.1089 225.687 49.8329 225.648 50.5809C225.648 50.9189 225.6 51.2489 225.568 51.5879C225.556 51.6845 225.51 51.7736 225.438 51.8387C225.366 51.9038 225.272 51.9405 225.175 51.9419ZM225.356 45.5999C225.253 45.6 225.154 45.5597 225.081 45.4877C225.007 45.4158 224.964 45.3179 224.962 45.2149C224.962 44.1449 224.884 43.0899 224.805 42.0669C224.801 42.0156 224.807 41.964 224.823 41.915C224.839 41.8661 224.864 41.8208 224.898 41.782C224.932 41.7431 224.973 41.7114 225.019 41.6887C225.065 41.666 225.116 41.6528 225.167 41.6499C225.219 41.6457 225.271 41.6517 225.32 41.6676C225.369 41.6835 225.415 41.7091 225.455 41.7427C225.494 41.7763 225.527 41.8174 225.55 41.8636C225.574 41.9098 225.588 41.9602 225.592 42.0119C225.672 43.0419 225.726 44.1129 225.75 45.1989C225.75 45.4139 225.58 45.5919 225.364 45.5999H225.356ZM224.844 39.3059C224.749 39.3052 224.657 39.2708 224.585 39.2087C224.513 39.1466 224.465 39.0609 224.45 38.9669C224.302 37.9313 224.11 36.9023 223.875 35.8829C223.864 35.8312 223.863 35.7777 223.872 35.7256C223.881 35.6734 223.901 35.6236 223.929 35.579C223.958 35.5344 223.995 35.4958 224.038 35.4655C224.082 35.4352 224.131 35.4138 224.182 35.4024C224.234 35.3911 224.288 35.39 224.34 35.3993C224.392 35.4086 224.442 35.4281 224.486 35.4567C224.531 35.4852 224.57 35.5223 224.6 35.5658C224.63 35.6092 224.652 35.6582 224.663 35.7099C224.891 36.7169 225.088 37.7799 225.246 38.8569C225.26 38.96 225.233 39.0644 225.172 39.1481C225.11 39.2319 225.018 39.2885 224.916 39.3059H224.844ZM223.419 33.1359C223.336 33.1372 223.254 33.1121 223.186 33.0641C223.118 33.0161 223.067 32.9478 223.04 32.8689C222.718 31.879 222.343 30.9075 221.914 29.9589C221.892 29.9119 221.88 29.861 221.878 29.8092C221.876 29.7573 221.884 29.7056 221.902 29.657C221.92 29.6083 221.947 29.5637 221.982 29.5256C222.018 29.4875 222.06 29.4567 222.107 29.4349C222.154 29.4132 222.205 29.401 222.257 29.3989C222.309 29.3968 222.36 29.405 222.409 29.4229C222.458 29.4408 222.502 29.4682 222.54 29.5034C222.578 29.5385 222.609 29.5809 222.631 29.6279C223.072 30.6049 223.459 31.6049 223.789 32.6249C223.822 32.7231 223.815 32.8302 223.769 32.9231C223.723 33.016 223.643 33.0871 223.545 33.1209C223.503 33.1255 223.46 33.1228 223.419 33.1129V33.1359ZM220.788 27.3859C220.721 27.3864 220.655 27.3699 220.595 27.3381C220.536 27.3063 220.486 27.2602 220.449 27.2039C219.906 26.3178 219.3 25.4713 218.637 24.6709C218.572 24.5903 218.541 24.4871 218.551 24.3839C218.562 24.2807 218.613 24.1858 218.693 24.1199C218.732 24.0864 218.777 24.0609 218.826 24.0451C218.875 24.0292 218.927 24.0233 218.978 24.0277C219.029 24.0321 219.079 24.0467 219.124 24.0706C219.17 24.0945 219.21 24.1273 219.243 24.1669C219.927 24.9884 220.554 25.8561 221.119 26.7639C221.158 26.8227 221.18 26.891 221.183 26.9615C221.186 27.0319 221.169 27.1018 221.135 27.1635C221.101 27.2252 221.051 27.2764 220.989 27.3114C220.928 27.3463 220.858 27.3638 220.788 27.3619V27.3859ZM216.739 22.5299C216.644 22.5284 216.553 22.4953 216.479 22.4359C215.704 21.745 214.877 21.1138 214.006 20.5479C213.961 20.5206 213.923 20.4846 213.892 20.4421C213.862 20.3996 213.84 20.3515 213.829 20.3005C213.817 20.2495 213.816 20.1967 213.825 20.1453C213.834 20.0938 213.853 20.0446 213.881 20.0006C213.91 19.9567 213.946 19.9188 213.989 19.8892C214.033 19.8596 214.081 19.8389 214.132 19.8283C214.183 19.8177 214.236 19.8175 214.288 19.8275C214.339 19.8376 214.388 19.8578 214.431 19.8869C215.338 20.4745 216.199 21.1293 217.007 21.8459C217.08 21.9208 217.12 22.0211 217.12 22.1254C217.12 22.2298 217.08 22.3301 217.007 22.4049C216.933 22.4707 216.838 22.507 216.739 22.5069V22.5299ZM211.439 19.0919C211.384 19.1028 211.328 19.1028 211.273 19.0919C210.324 18.6609 209.348 18.2919 208.351 17.9909C208.297 17.9777 208.247 17.9537 208.203 17.9206C208.159 17.8874 208.122 17.8456 208.094 17.7978C208.067 17.75 208.049 17.6971 208.042 17.6423C208.036 17.5875 208.04 17.5319 208.056 17.4789C208.071 17.4258 208.097 17.3765 208.132 17.3337C208.167 17.2909 208.21 17.2556 208.259 17.23C208.308 17.2043 208.361 17.1888 208.416 17.1843C208.471 17.1798 208.527 17.1865 208.579 17.2039C209.612 17.5129 210.622 17.8909 211.604 18.3369C211.651 18.3581 211.693 18.3885 211.728 18.4262C211.763 18.4639 211.79 18.5083 211.808 18.5566C211.825 18.605 211.833 18.6564 211.831 18.7078C211.828 18.7592 211.815 18.8096 211.793 18.8559C211.76 18.9213 211.709 18.976 211.646 19.0135C211.583 19.051 211.511 19.0699 211.438 19.0679L211.439 19.0919ZM205.373 17.2429H205.303C204.273 17.0641 203.234 16.9459 202.191 16.8889C202.139 16.8859 202.089 16.8727 202.042 16.8501C201.996 16.8274 201.954 16.7959 201.92 16.7571C201.885 16.7184 201.859 16.6733 201.842 16.6243C201.825 16.5754 201.818 16.5236 201.821 16.4719C201.821 16.4191 201.831 16.3668 201.853 16.3186C201.874 16.2703 201.906 16.2272 201.945 16.1922C201.985 16.1571 202.031 16.1309 202.082 16.1154C202.132 16.0998 202.186 16.0952 202.238 16.1019C203.31 16.1619 204.378 16.2829 205.436 16.4639C205.65 16.5039 205.793 16.7059 205.759 16.9199C205.739 17.0068 205.69 17.0842 205.62 17.1388C205.549 17.1935 205.462 17.2222 205.373 17.2199V17.2429ZM197.442 17.0149C197.34 17.0195 197.24 16.9843 197.163 16.9165C197.086 16.8488 197.039 16.7539 197.031 16.6519C197.022 16.5498 197.054 16.4486 197.119 16.3695C197.184 16.2904 197.277 16.2397 197.379 16.2279C197.901 16.1466 198.426 16.0942 198.954 16.0709C199.007 16.0657 199.06 16.0712 199.111 16.0871C199.161 16.1029 199.208 16.1289 199.248 16.1633C199.289 16.1977 199.322 16.2399 199.345 16.2874C199.369 16.3348 199.383 16.3866 199.386 16.4395C199.389 16.4924 199.382 16.5455 199.364 16.5954C199.346 16.6454 199.318 16.6912 199.282 16.7302C199.246 16.7692 199.203 16.8005 199.155 16.8223C199.106 16.844 199.054 16.8558 199.001 16.8569C198.048 16.9129 197.481 16.9989 197.481 16.9989L197.441 17.0149H197.442Z" fill="#52A4D2"/>
<path d="M2.33296 48.385L25.185 29.727C25.7143 29.2948 26.3936 29.0905 27.0735 29.159C27.7534 29.2274 28.3784 29.563 28.811 30.092L38.042 41.374C38.2566 41.6362 38.4174 41.9382 38.5152 42.2626C38.613 42.587 38.6459 42.9275 38.612 43.2647C38.5781 43.6018 38.4781 43.929 38.3176 44.2274C38.1572 44.5259 37.9395 44.7897 37.677 45.004L14.825 63.662C14.2956 64.0942 13.6163 64.2985 12.9364 64.23C12.2565 64.1616 11.6316 63.826 11.199 63.297L1.96796 52.015C1.75336 51.7528 1.59256 51.4508 1.49475 51.1264C1.39694 50.802 1.36404 50.4615 1.39794 50.1243C1.43184 49.7872 1.53187 49.46 1.69231 49.1616C1.85275 48.8631 2.07045 48.5992 2.33296 48.385Z" fill="white"/>
<path d="M13.1219 64.87H12.8779C12.2594 64.7999 11.6934 64.4887 11.3029 64.004L1.2999 51.808C1.09779 51.5668 0.945982 51.2876 0.85341 50.9868C0.760838 50.6861 0.729374 50.3698 0.76087 50.0568C0.792366 49.7437 0.886186 49.44 1.03681 49.1637C1.18743 48.8874 1.3918 48.6441 1.6379 48.448L25.3859 29.053C25.6276 28.8512 25.9071 28.6998 26.2081 28.6075C26.5091 28.5152 26.8254 28.4839 27.1387 28.5155C27.4519 28.547 27.7557 28.6408 28.0322 28.7913C28.3087 28.9419 28.5523 29.1461 28.7489 29.392L38.7209 41.579C38.9229 41.8202 39.0747 42.0995 39.1672 42.4003C39.2597 42.7011 39.291 43.0173 39.2595 43.3304C39.2279 43.6435 39.1339 43.9471 38.9832 44.2234C38.8325 44.4996 38.6281 44.7429 38.3819 44.939L14.6349 64.326C14.2099 64.678 13.6749 64.871 13.1219 64.87ZM26.8979 29.305C26.5292 29.3059 26.1714 29.4306 25.8819 29.659L2.1349 49.054C1.8109 49.324 1.6099 49.713 1.5749 50.132C1.5349 50.557 1.6629 50.98 1.9299 51.312L11.9009 63.492C12.1679 63.824 12.5569 64.034 12.9809 64.075C13.4029 64.115 13.8239 63.987 14.1539 63.721L37.8859 44.325C38.0517 44.1944 38.1895 44.0318 38.2911 43.8469C38.3927 43.662 38.4561 43.4585 38.4775 43.2485C38.4989 43.0386 38.4778 42.8265 38.4155 42.6249C38.3532 42.4233 38.251 42.2363 38.1149 42.075L28.1429 29.911C27.9952 29.7218 27.8063 29.5689 27.5905 29.4639C27.3748 29.3589 27.1379 29.3045 26.8979 29.305Z" fill="#D1D3D4"/>
<path d="M1.18084 50.368C1.07669 50.3677 0.976886 50.3262 0.903241 50.2526C0.829596 50.1789 0.788106 50.0791 0.787842 49.975C0.782337 49.9237 0.7872 49.8718 0.802142 49.8224C0.817084 49.773 0.8418 49.7271 0.874822 49.6875C0.907844 49.6478 0.948498 49.6152 0.994369 49.5916C1.04024 49.568 1.09039 49.5538 1.14184 49.55L20.9358 47.835L26.5598 28.8C26.5735 28.7498 26.5971 28.703 26.6292 28.6622C26.6614 28.6214 26.7015 28.5876 26.747 28.5626C26.7926 28.5377 26.8427 28.5222 26.8944 28.5171C26.9461 28.512 26.9983 28.5174 27.0478 28.533C27.1467 28.5636 27.2295 28.6321 27.2782 28.7235C27.3269 28.8149 27.3375 28.9218 27.3078 29.021L21.6208 48.314C21.6001 48.3901 21.5564 48.4581 21.4958 48.5087C21.4352 48.5593 21.3605 48.5901 21.2818 48.597L1.22084 50.367L1.18084 50.368Z" fill="#D1D3D4"/>
<path d="M22.0539 45.773C22.0006 45.7757 21.9473 45.7675 21.8972 45.7489C21.8471 45.7304 21.8013 45.7018 21.7626 45.665C21.7239 45.6282 21.6931 45.5839 21.672 45.5349C21.651 45.4858 21.6401 45.4329 21.6401 45.3795C21.6401 45.3261 21.651 45.2732 21.672 45.2241C21.6931 45.1751 21.7239 45.1308 21.7626 45.094C21.8013 45.0572 21.8471 45.0286 21.8972 45.0101C21.9473 44.9915 22.0006 44.9833 22.0539 44.986L38.7999 43.074C38.9029 43.0651 39.0053 43.0962 39.0859 43.1608C39.1665 43.2254 39.2192 43.3186 39.2329 43.421C39.2395 43.4727 39.2357 43.5251 39.2218 43.5753C39.2079 43.6255 39.1842 43.6724 39.152 43.7134C39.1198 43.7543 39.0798 43.7885 39.0343 43.8138C38.9888 43.8391 38.9387 43.8552 38.8869 43.861L22.1249 45.773H22.0539ZM13.0989 64.87C13.06 64.8774 13.0199 64.8774 12.9809 64.87C12.9312 64.8549 12.8851 64.8298 12.8453 64.7964C12.8056 64.763 12.7729 64.7219 12.7494 64.6756C12.7259 64.6293 12.7119 64.5787 12.7084 64.5269C12.7049 64.4751 12.7119 64.4231 12.7289 64.374L17.9349 48.362C17.9673 48.2575 18.0398 48.1701 18.1366 48.1191C18.2334 48.0681 18.3464 48.0576 18.4509 48.09C18.5554 48.1224 18.6428 48.1949 18.6938 48.2917C18.7448 48.3884 18.7553 48.5015 18.7229 48.606L13.5159 64.618C13.4834 64.6997 13.4251 64.7684 13.3497 64.8138C13.2744 64.8591 13.1863 64.8795 13.0989 64.87Z" fill="#D1D3D4"/>
<path d="M217.625 104.805L239.399 114.236C239.649 114.344 239.874 114.5 240.064 114.695C240.253 114.89 240.402 115.12 240.502 115.373C240.602 115.626 240.652 115.896 240.647 116.167C240.643 116.439 240.585 116.708 240.477 116.957L240.475 116.958L235.807 127.713C235.588 128.216 235.178 128.612 234.667 128.814C234.157 129.015 233.587 129.006 233.083 128.789L211.308 119.359C211.058 119.251 210.833 119.095 210.643 118.899C210.454 118.704 210.306 118.473 210.206 118.22C210.106 117.967 210.057 117.697 210.062 117.425C210.066 117.154 210.125 116.885 210.233 116.636L214.9 105.882C215.119 105.378 215.529 104.982 216.04 104.78C216.551 104.578 217.121 104.587 217.625 104.805Z" fill="white"/>
<path d="M234.162 129.491C233.891 129.489 233.623 129.433 233.374 129.326L210.753 119.522C210.263 119.316 209.877 118.922 209.682 118.428C209.481 117.937 209.481 117.386 209.682 116.894L214.715 105.288C214.928 104.803 215.324 104.423 215.817 104.228C216.309 104.034 216.858 104.042 217.345 104.25L239.975 114.046C240.461 114.258 240.844 114.654 241.038 115.147C241.139 115.389 241.192 115.648 241.192 115.91C241.192 116.173 241.139 116.432 241.038 116.674L235.998 128.264C235.895 128.504 235.745 128.722 235.557 128.904C235.369 129.087 235.147 129.23 234.903 129.326C234.669 129.427 234.417 129.483 234.162 129.491ZM216.605 104.871C216.122 104.873 215.686 105.161 215.495 105.603L210.422 117.248C210.164 117.856 210.446 118.558 211.052 118.822L233.682 128.626C233.98 128.747 234.313 128.747 234.612 128.626C234.91 128.509 235.149 128.276 235.272 127.98L240.314 116.367C240.436 116.072 240.436 115.742 240.314 115.447C240.258 115.297 240.171 115.16 240.06 115.045C239.949 114.93 239.816 114.839 239.668 114.777L217.054 104.974C216.913 104.909 216.76 104.874 216.605 104.871Z" fill="#D1D3D4"/>
<path d="M224.742 118.617C224.676 118.619 224.61 118.603 224.552 118.571C224.494 118.54 224.445 118.493 224.411 118.437L215.747 104.761C215.719 104.717 215.701 104.668 215.693 104.617C215.684 104.566 215.686 104.514 215.698 104.463C215.709 104.413 215.731 104.365 215.761 104.323C215.791 104.281 215.829 104.245 215.873 104.217C215.917 104.19 215.966 104.172 216.017 104.163C216.069 104.155 216.121 104.156 216.171 104.168C216.222 104.18 216.269 104.201 216.312 104.232C216.354 104.262 216.389 104.3 216.417 104.344L224.907 117.791L240.542 114.793C240.593 114.781 240.645 114.78 240.696 114.79C240.748 114.799 240.796 114.819 240.84 114.847C240.883 114.876 240.92 114.913 240.949 114.957C240.978 115 240.997 115.049 241.007 115.1C241.025 115.203 241.003 115.309 240.944 115.396C240.885 115.483 240.795 115.543 240.692 115.564L224.797 118.617H224.742Z" fill="#D1D3D4"/>
<path d="M234.619 129.42C234.554 129.42 234.49 129.404 234.433 129.374C234.375 129.344 234.326 129.3 234.289 129.247L226.742 118.035C226.699 117.97 226.676 117.894 226.676 117.816C226.676 117.738 226.699 117.662 226.743 117.597C226.786 117.533 226.848 117.483 226.92 117.453C226.992 117.424 227.071 117.416 227.148 117.432C227.25 117.452 227.34 117.514 227.396 117.602L234.942 128.846C235.062 129.029 235.012 129.274 234.832 129.396C234.764 129.422 234.691 129.431 234.619 129.42ZM210.107 118.822C210.012 118.823 209.921 118.791 209.849 118.73C209.776 118.67 209.728 118.585 209.713 118.492C209.705 118.441 209.707 118.388 209.719 118.338C209.731 118.287 209.754 118.24 209.784 118.198C209.815 118.156 209.854 118.121 209.898 118.094C209.943 118.067 209.992 118.05 210.044 118.042L223.434 115.855C223.534 115.848 223.633 115.878 223.711 115.94C223.79 116.003 223.842 116.092 223.858 116.191C223.874 116.29 223.852 116.391 223.797 116.474C223.741 116.558 223.657 116.618 223.56 116.642L210.17 118.83L210.107 118.822Z" fill="#D1D3D4"/>
<path d="M65.276 12.726L81.746 18.18C81.9345 18.2422 82.109 18.341 82.2593 18.4707C82.4097 18.6004 82.5329 18.7585 82.6221 18.9359C82.7113 19.1133 82.7646 19.3065 82.779 19.5046C82.7934 19.7026 82.7685 19.9016 82.706 20.09L80.006 28.229C79.8792 28.6095 79.6068 28.9242 79.2484 29.1042C78.89 29.2841 78.4748 29.3146 78.094 29.189L61.624 23.735C61.4353 23.6728 61.2607 23.574 61.1103 23.4442C60.9599 23.3144 60.8365 23.1562 60.7474 22.9787C60.6582 22.8012 60.6049 22.6078 60.5906 22.4097C60.5763 22.2115 60.6012 22.0125 60.664 21.824L63.364 13.686C63.4907 13.3055 63.7631 12.9908 64.1215 12.8108C64.48 12.6308 64.8951 12.6003 65.276 12.726Z" fill="white"/>
<path d="M78.7658 29.738C78.5998 29.738 78.4348 29.711 78.2768 29.659L61.1608 23.994C60.7675 23.8609 60.4425 23.578 60.2568 23.2066C60.071 22.8352 60.0394 22.4055 60.1688 22.011L63.0828 13.231C63.2145 12.8377 63.4959 12.5121 63.866 12.3249C64.236 12.1377 64.665 12.104 65.0598 12.231L82.1758 17.896C82.5697 18.0283 82.8952 18.3112 83.0812 18.6827C83.2673 19.0542 83.2988 19.4843 83.1688 19.879L80.2618 28.659C80.1575 28.9732 79.9569 29.2467 79.6883 29.4404C79.4197 29.6341 79.0969 29.7382 78.7658 29.738ZM78.5208 28.912C78.7127 28.9908 78.9279 28.9908 79.1198 28.912C79.2123 28.8654 79.2947 28.8011 79.3624 28.7227C79.43 28.6443 79.4814 28.5533 79.5138 28.455L82.4358 19.682C82.5146 19.4904 82.5146 19.2755 82.4358 19.084C82.3435 18.8991 82.1823 18.7579 81.9868 18.691L64.8708 13.026C64.6731 12.9622 64.4582 12.9791 64.2728 13.073C64.0908 13.1664 63.9524 13.3271 63.8868 13.521L60.9718 22.302C60.897 22.4943 60.897 22.7076 60.9718 22.9C61.0678 23.084 61.2318 23.222 61.4288 23.286L78.5208 28.912Z" fill="#D1D3D4"/>
<path d="M71.3219 22.436C71.261 22.4354 71.2009 22.421 71.1464 22.3938C71.0918 22.3666 71.0441 22.3273 71.0069 22.279L63.7999 12.884C63.7398 12.8013 63.7143 12.6984 63.7288 12.5971C63.7434 12.4959 63.7968 12.4043 63.8778 12.3418C63.9587 12.2793 64.0609 12.2509 64.1625 12.2625C64.2641 12.2741 64.3572 12.3249 64.4219 12.404L71.4399 21.586L82.5619 18.439C82.612 18.4247 82.6645 18.4205 82.7162 18.4266C82.7679 18.4328 82.8179 18.4491 82.8633 18.4747C82.9087 18.5002 82.9486 18.5346 82.9806 18.5756C83.0126 18.6167 83.0362 18.6637 83.0499 18.714C83.0766 18.8141 83.0627 18.9207 83.0112 19.0106C82.9597 19.1005 82.8748 19.1664 82.7749 19.194L71.3999 22.452L71.3219 22.436Z" fill="#D1D3D4"/>
<path d="M79.2148 29.66C79.1553 29.661 79.0964 29.6479 79.0429 29.6219C78.9894 29.5958 78.9428 29.5575 78.9069 29.51L72.6849 21.814C72.6192 21.7325 72.5886 21.6284 72.5998 21.5244C72.6109 21.4204 72.6629 21.3251 72.7444 21.2595C72.8258 21.1938 72.9299 21.1632 73.0339 21.1744C73.1379 21.1855 73.2332 21.2375 73.2989 21.319L79.5219 29.022C79.5677 29.0798 79.5963 29.1494 79.6044 29.2227C79.6125 29.296 79.5998 29.3701 79.5678 29.4366C79.5358 29.5031 79.4857 29.5592 79.4233 29.5985C79.3609 29.6378 79.2886 29.6598 79.2148 29.66ZM60.6499 23.522C60.5487 23.5284 60.4489 23.4958 60.3709 23.431C60.293 23.3662 60.2428 23.274 60.2306 23.1733C60.2185 23.0727 60.2453 22.9712 60.3056 22.8897C60.3659 22.8082 60.4551 22.7528 60.5549 22.735L70.1489 20.28C70.199 20.267 70.2511 20.2641 70.3023 20.2713C70.3536 20.2785 70.4029 20.2958 70.4475 20.3221C70.492 20.3483 70.531 20.3831 70.5621 20.4245C70.5932 20.4658 70.6159 20.5129 70.6289 20.563C70.642 20.6126 70.6451 20.6644 70.6379 20.7153C70.6307 20.7661 70.6134 20.815 70.587 20.8591C70.5607 20.9032 70.5257 20.9415 70.4843 20.9719C70.4429 21.0023 70.3958 21.0241 70.3459 21.036L60.7519 23.498L60.6489 23.522H60.6499Z" fill="#D1D3D4"/>
</g>
<defs>
<clipPath id="clip0_209_1292">
<rect width="242" height="200" fill="white"/>
</clipPath>
</defs>
</svg>
